<svg width="743" height="315" viewBox="0 0 743 315" fill="none" xmlns="http://www.w3.org/2000/svg">
<path d="M155.58 65.9657L115.845 54.1417L107.755 48.2297L84.4183 47.9185C79.6887 47.6696 78.5063 50.3041 78.5063 51.6524V59.4314C79.502 61.6717 82.0327 62.4393 83.1737 62.543C95.8275 65.862 124.62 73.558 138.56 77.7898C152.5 82.0215 156.192 93.244 156.296 98.3263L166.159 123.841C155.891 153.401 139.597 152.364 133.893 154.024C113.875 154.127 69.9183 154.273 54.2359 154.024C38.5534 153.775 33.1807 139.607 32.4547 132.554V106.105C36.7168 101.438 40.4507 97.0816 45.1181 91.7919C54.7645 94.0985 68.3031 114.678 71.3496 115.44C76.3282 116.685 79.2323 120.315 80.0621 121.974H101.532C110.244 121.974 111.8 118.033 111.489 116.062C112.236 108.843 108.066 106.831 105.888 106.728L53.3024 92.4142C34.8817 86.1911 31.7287 73.4335 32.4547 67.8327V40.1395C34.1972 23.7103 48.5409 13.0687 55.3864 7.15666L133.893 14.6245C145.343 16.118 166.263 42.0065 168.959 49.1631L155.58 65.9657Z" fill="#1E3485" style="fill:#1E3485;fill:color(display-p3 0.1183 0.2033 0.5232);fill-opacity:1;"/>
<path d="M168.959 49.1631L128.508 39.8284L120.418 33.9163L97.0814 33.6052C92.3518 33.3563 91.1694 35.9907 91.1694 37.3391V45.1181C92.1651 47.3584 94.6958 48.1259 95.8367 48.2297C108.491 51.5487 137.283 59.2447 151.223 63.4765C165.163 67.7082 168.855 78.9307 168.959 84.013L168.337 118.24C164.603 131.434 152.26 138.051 146.556 139.71C126.538 139.814 82.5814 139.959 66.8989 139.71C51.2165 139.462 45.8438 125.293 45.1178 118.24V91.7919C56.0084 94.3849 79.0341 99.8821 84.0127 101.127C88.9912 102.371 91.8954 106.002 92.7251 107.661H114.195C122.908 107.661 124.463 103.72 124.152 101.749C124.899 94.5301 120.729 92.518 118.551 92.4143L65.9654 78.1009C47.5448 71.8778 44.3917 59.1202 45.1178 53.5194V25.8262C46.8603 9.397 61.8167 1.97067 69.077 0.311157H146.556C158.006 1.80472 166.262 16.4914 168.959 23.6481V49.1631Z" fill="#3EAFE5" style="fill:#3EAFE5;fill:color(display-p3 0.2431 0.6863 0.8980);fill-opacity:1;"/>
<path d="M69.3173 32.9828C69.3442 33.4566 69.3554 33.9659 69.3477 34.5027C69.9076 48.2496 78.0799 51.851 83.4271 52.0087C83.966 51.9644 84.5242 51.9416 85.1022 51.9416C84.589 52.0008 84.0258 52.0263 83.4271 52.0087C72.2394 52.927 69.358 63.0468 69.3144 68.6199C69.3163 68.7711 69.3173 68.9236 69.3173 69.0773C69.3142 68.9286 69.3132 68.7761 69.3144 68.6199C69.1462 55.4135 61.6862 51.9857 56.5814 51.8323C55.9532 51.9041 55.296 51.9416 54.6086 51.9416C55.2029 51.8532 55.8693 51.8109 56.5814 51.8323C66.6287 50.6832 69.2586 40.7367 69.3477 34.5027C69.3276 34.0093 69.3173 33.5028 69.3173 32.9828Z" fill="#FCD407" style="fill:#FCD407;fill:color(display-p3 0.9882 0.8314 0.0275);fill-opacity:1;"/>
<path d="M173.938 31.4271C171.946 21.9678 168.337 17.9435 166.781 17.1137L182.962 0.311157L220.923 17.4249C217.936 17.6738 218.019 23.7518 218.434 26.7597L231.813 83.7018L249.55 17.4249L265.73 0.622316L292.178 17.4249L310.537 83.7018C313.752 69.9071 320.681 40.0773 322.672 31.1159C324.663 22.1545 322.879 18.2547 321.738 17.4249L337.919 0.622316L374.013 17.4249L373.08 18.0472C369.097 20.2876 366.442 28.9378 365.612 32.9829C361.982 48.2297 354.597 79.5323 354.099 82.7683C353.601 86.0044 354.929 86.6059 355.655 86.5022C352.917 87.7469 351.402 90.3399 350.987 91.4808L351.61 136.91L339.163 153.713H291.245L271.02 89.3027L267.597 136.91L253.595 153.713H203.187L189.496 96.1482C186.011 85.1954 178.294 82.6646 174.871 82.7683C182.837 80.279 182.962 71.3592 182.028 67.2104C180.161 59.2239 175.929 40.8863 173.938 31.4271Z" fill="#1E3485" style="fill:#1E3485;fill:color(display-p3 0.1183 0.2033 0.5232);fill-opacity:1;"/>
<path d="M190.118 14.6245C188.126 5.16524 184.517 1.14091 182.961 0.311157L237.103 0.622316C234.116 0.871244 234.199 6.94922 234.614 9.95709L247.993 66.8992L265.729 0.622316H308.358L326.717 66.8992C329.932 53.1045 336.86 23.2747 338.852 14.3133C340.843 5.35193 339.059 1.45207 337.918 0.622316H390.193L389.26 1.24463C385.277 3.48498 382.622 12.1352 381.792 16.1803C378.162 31.4271 370.777 62.7297 370.279 65.9657C369.781 69.2018 371.109 69.8034 371.835 69.6996C369.097 70.9443 367.582 73.5373 367.167 74.6782L351.609 136.91H307.425L287.199 72.5001L267.596 136.91H219.367L205.676 79.3456C202.191 68.3928 194.474 65.862 191.051 65.9657C199.017 63.4765 199.141 54.5566 198.208 50.4078C196.341 42.4214 192.109 24.0837 190.118 14.6245Z" fill="#3EAFE5" style="fill:#3EAFE5;fill:color(display-p3 0.2431 0.6863 0.8980);fill-opacity:1;"/>
<path d="M286.04 33.294C286.067 33.7678 286.078 34.2771 286.07 34.8139C286.63 48.5608 294.803 52.1621 300.15 52.3198C300.689 52.2756 301.247 52.2527 301.825 52.2527C301.312 52.312 300.748 52.3375 300.15 52.3198C288.962 53.2382 286.081 63.3579 286.037 68.9311C286.039 69.0822 286.04 69.2347 286.04 69.3885C286.037 69.2398 286.036 69.0872 286.037 68.9311C285.869 55.7247 278.409 52.2969 273.304 52.1434C272.676 52.2153 272.019 52.2527 271.331 52.2527C271.926 52.1643 272.592 52.122 273.304 52.1434C283.351 50.9944 285.981 41.0478 286.07 34.8139C286.05 34.3204 286.04 33.8139 286.04 33.294Z" fill="#FCD407" style="fill:#FCD407;fill:color(display-p3 0.9882 0.8314 0.0275);fill-opacity:1;"/>
<path d="M388.327 28.9378C388.327 22.9635 385.63 18.9807 384.282 17.7361L400.151 0.622314L437.801 18.0472C434.316 18.5451 433.445 24.2704 433.445 27.0708V70.9443C433.445 78.4121 439.875 82.146 443.091 83.0795C436.121 85.3198 433.756 90.8585 433.445 93.3477L449.314 136.91L433.445 154.024H388.327V95.2147C387.58 87.9958 380.963 83.9092 377.747 82.7683C385.962 79.2833 388.223 72.8112 388.327 70.0108V28.9378Z" fill="#1E3485" style="fill:#1E3485;fill:color(display-p3 0.1183 0.2033 0.5232);fill-opacity:1;"/>
<path d="M404.196 11.824C404.196 5.84979 401.499 1.86695 400.151 0.622314L453.67 0.933474C450.185 1.43133 449.314 7.15666 449.314 9.95709V53.8305C449.314 61.2983 455.745 65.0322 458.96 65.9657C451.99 68.2061 449.625 73.7447 449.314 76.234V136.91H404.196V78.1009C403.449 70.882 396.832 66.7955 393.616 65.6546C401.831 62.1696 404.092 55.6975 404.196 52.897V11.824Z" fill="#3EAFE5" style="fill:#3EAFE5;fill:color(display-p3 0.2431 0.6863 0.8980);fill-opacity:1;"/>
<path d="M427.929 44.4958C427.956 44.9695 427.967 45.4788 427.959 46.0156C428.519 59.7625 436.691 63.3639 442.038 63.5216C442.577 63.4773 443.136 63.4545 443.714 63.4545C443.2 63.5137 442.637 63.5392 442.038 63.5216C430.851 64.4399 427.969 74.5597 427.926 80.1328C427.928 80.284 427.929 80.4365 427.929 80.5902C427.926 80.4415 427.925 80.289 427.926 80.1328C427.758 66.9264 420.298 63.4986 415.193 63.3452C414.565 63.417 413.907 63.4545 413.22 63.4545C413.814 63.3661 414.481 63.3238 415.193 63.3452C425.24 62.1961 427.87 52.2496 427.959 46.0156C427.939 45.5222 427.929 45.0157 427.929 44.4958Z" fill="#FCD407" style="fill:#FCD407;fill:color(display-p3 0.9882 0.8314 0.0275);fill-opacity:1;"/>
<path d="M505.945 153.713H465.183C464.976 137.429 464.561 102.931 464.561 95.2147C464.561 87.4979 458.545 83.7018 455.537 82.7683C461.761 79.7812 464.146 74.8856 464.561 72.8112V45.7404C465.059 25.5773 480.741 9.95709 489.765 5.60086L503.767 0.933472H561.954L583.424 41.3842L565.999 61.6095C565.75 56.382 557.598 51.1338 553.552 50.7189H512.168C507.19 50.7189 505.945 55.0752 505.945 57.2533V73.1224C519.532 73.1224 547.018 73.0602 548.263 72.8112C549.507 72.5623 551.686 71.4629 552.619 70.9443L569.733 89.3027L552.619 106.416H505.945L523.059 136.91L505.945 153.713Z" fill="#1E3485" style="fill:#1E3485;fill:color(display-p3 0.1183 0.2033 0.5232);fill-opacity:1;"/>
<path d="M523.058 136.599H482.297C482.089 120.315 481.674 85.8177 481.674 78.1009C481.674 70.3842 475.659 66.5881 472.651 65.6546C478.874 62.6674 481.259 57.7719 481.674 55.6975V28.6266C482.172 8.46353 496.61 1.76323 503.767 0.933477L583.112 0V41.3842C582.863 36.1567 574.711 34.0201 570.666 33.6052H529.282C524.303 33.6052 523.058 37.9614 523.058 40.1395V56.0086C536.646 56.0086 564.131 55.9464 565.376 55.6975C566.621 55.4486 568.799 54.3491 569.732 53.8305V89.3027H523.058V136.599Z" fill="#3EAFE5" style="fill:#3EAFE5;fill:color(display-p3 0.2431 0.6863 0.8980);fill-opacity:1;"/>
<path d="M500.117 46.985C500.144 47.4588 500.155 47.9681 500.148 48.5049C500.707 62.2518 508.88 65.8531 514.227 66.0108C514.766 65.9666 515.324 65.9437 515.902 65.9437C515.389 66.003 514.826 66.0285 514.227 66.0108C503.039 66.9292 500.158 77.049 500.114 82.6221C500.116 82.7733 500.117 82.9257 500.117 83.0795C500.114 82.9308 500.113 82.7782 500.114 82.6221C499.946 69.4157 492.486 65.9879 487.381 65.8344C486.753 65.9063 486.096 65.9437 485.408 65.9437C486.003 65.8553 486.669 65.813 487.381 65.8344C497.428 64.6854 500.058 54.7388 500.148 48.5049C500.127 48.0114 500.117 47.5049 500.117 46.985Z" fill="#FCD407" style="fill:#FCD407;fill:color(display-p3 0.9882 0.8314 0.0275);fill-opacity:1;"/>
<path d="M684.55 61.2983C690.524 61.5473 699.485 60.676 700.419 63.4765L715.666 42.3176L711.932 17.7361L604.582 0.933472L586.846 19.9142V61.2983H593.38H620.451V71.8777C620.451 79.0966 613.191 82.3534 609.561 83.0795C616.282 83.0795 619.621 90.1324 620.451 93.6589V154.335H663.391C668.681 149.668 669.614 147.801 682.683 137.221C682.563 121.686 662.944 95.2443 663.391 92.4142C664.138 87.6846 669.096 84.2204 671.481 83.0795C665.756 80.5902 663.702 76.0265 663.391 74.0559V53.8305C668.577 53.7268 677.082 60.9872 684.55 61.2983Z" fill="#1E3485" style="fill:#1E3485;fill:color(display-p3 0.1183 0.2033 0.5232);fill-opacity:1;"/>
<path d="M715.355 0.933472H604.582L604.893 42.0065C606.387 38.0236 611.22 37.0279 613.295 37.0279H639.743V55.0752C639.743 62.294 632.483 65.5508 628.853 66.2769C635.574 66.2769 638.913 73.3298 639.743 76.8563V137.532H682.683C682.372 118.863 681.936 80.3413 682.683 75.6117C683.43 70.882 688.388 67.4178 690.773 66.2769C685.048 63.7876 682.994 59.2239 682.683 57.2533V37.0279C687.869 36.9242 699.735 36.779 705.709 37.0279C711.683 37.2769 714.629 40.4507 715.355 42.0065V0.933472Z" fill="#3EAFE5" style="fill:#3EAFE5;fill:color(display-p3 0.2431 0.6863 0.8980);fill-opacity:1;"/>
<path d="M661.92 50.0966C661.947 50.5704 661.958 51.0797 661.95 51.6165C662.51 65.3634 670.682 68.9647 676.03 69.1224C676.569 69.0782 677.127 69.0553 677.705 69.0553C677.192 69.1146 676.628 69.1401 676.03 69.1224C664.842 70.0408 661.961 80.1606 661.917 85.7337C661.919 85.8849 661.92 86.0373 661.92 86.1911C661.917 86.0424 661.916 85.8898 661.917 85.7337C661.749 72.5273 654.289 69.0995 649.184 68.946C648.556 69.0179 647.899 69.0553 647.211 69.0553C647.805 68.9669 648.472 68.9246 649.184 68.946C659.231 67.797 661.861 57.8505 661.95 51.6165C661.93 51.123 661.92 50.6165 661.92 50.0966Z" fill="#FCD407" style="fill:#FCD407;fill:color(display-p3 0.9882 0.8314 0.0275);fill-opacity:1;"/>
<path d="M25.2041 175.183C46.3223 175.183 76.6032 189.496 87.4355 189.496C101.624 189.496 109.113 203.601 111.084 210.654V235.858C111.084 238.845 103.408 245.816 99.5703 248.928C107.038 252.413 110.358 260.129 111.084 263.552C111.188 270.501 118.24 281.288 117.618 291.245C117.105 299.447 99.26 314.27 90.2363 314.582H10.8906V261.062C10.8906 252.101 3.63024 249.239 0 248.928C8.71245 246.438 10.8906 239.8 10.8906 236.792V189.496C15.2469 185.451 20.8479 179.539 25.2041 175.183ZM46.6738 263.552V282.532H70.0107C71.4628 282.428 74.367 280.915 74.3672 275.687C74.3672 269.153 75.6116 263.552 68.7666 263.552H46.6738ZM46.6738 237.103H70.0107C71.4628 237 74.3672 235.485 74.3672 230.258C74.3672 223.724 75.6116 218.123 68.7666 218.123H46.6738V237.103Z" fill="#1E3485" style="fill:#1E3485;fill:color(display-p3 0.1183 0.2033 0.5232);fill-opacity:1;"/>
<path d="M101.749 175.183C115.938 175.183 123.427 189.289 125.397 196.342V221.545C125.397 224.532 117.722 231.503 113.885 234.614C121.352 238.099 124.671 245.815 125.397 249.238C125.501 256.187 125.646 272.14 125.397 280.354C125.148 288.569 111.395 297.053 104.55 300.268H25.2041V246.749C25.204 237.788 17.9436 234.925 14.3135 234.614C23.0259 232.125 25.2041 225.486 25.2041 222.478V175.183H101.749ZM60.9873 249.238V268.219H84.3242C85.7763 268.115 88.6805 266.601 88.6807 261.374C88.6807 254.84 89.925 249.238 83.0801 249.238H60.9873ZM60.9873 222.79H84.3242C85.7763 222.686 88.6807 221.172 88.6807 215.944C88.6807 209.41 89.925 203.81 83.0801 203.81H60.9873V222.79Z" fill="#3EAFE5" style="fill:#3EAFE5;fill:color(display-p3 0.2431 0.6863 0.8980);fill-opacity:1;"/>
<path d="M37.7342 215.633C37.7611 216.107 37.7722 216.616 37.7646 217.153C38.3245 230.9 46.4967 234.501 51.844 234.659C52.3829 234.615 52.9411 234.592 53.5191 234.592C53.0059 234.651 52.4427 234.677 51.844 234.659C40.6562 235.577 37.7749 245.697 37.7313 251.27C37.7332 251.421 37.7342 251.574 37.7342 251.728C37.7311 251.579 37.7301 251.426 37.7313 251.27C37.5631 238.064 30.1031 234.636 24.9983 234.483C24.3701 234.554 23.7129 234.592 23.0255 234.592C23.6198 234.504 24.2861 234.461 24.9983 234.483C35.0456 233.334 37.6755 223.387 37.7646 217.153C37.7445 216.66 37.7342 216.153 37.7342 215.633Z" fill="#FCD407" style="fill:#FCD407;fill:color(display-p3 0.9882 0.8314 0.0275);fill-opacity:1;"/>
<path d="M714.914 230.915C720.307 231.139 728.396 230.353 729.238 232.881L743.001 213.782L739.63 191.594L642.732 176.427L626.723 193.56V230.915H632.621H657.056V240.464C657.056 246.98 650.503 249.92 647.226 250.575C653.293 250.575 656.307 256.941 657.056 260.125V314.893H695.816C700.59 310.68 701.433 308.995 713.229 299.445C713.121 285.423 695.412 261.556 695.816 259.001C696.49 254.732 700.965 251.605 703.118 250.575C697.95 248.328 696.096 244.209 695.816 242.43V224.174C700.497 224.08 708.174 230.634 714.914 230.915Z" fill="#1E3485" style="fill:#1E3485;fill:color(display-p3 0.1183 0.2033 0.5232);fill-opacity:1;"/>
<path d="M742.72 176.427H642.733L643.014 213.501C644.362 209.906 648.724 209.007 650.597 209.007H674.47V225.297C674.47 231.814 667.917 234.753 664.64 235.409C670.707 235.409 673.721 241.775 674.47 244.958V299.726H713.229C712.949 282.875 712.555 248.104 713.229 243.834C713.904 239.565 718.379 236.438 720.532 235.409C715.364 233.162 713.51 229.042 713.229 227.264V209.007C717.911 208.914 728.621 208.783 734.013 209.007C739.406 209.232 742.065 212.097 742.72 213.501V176.427Z" fill="#3EAFE5" style="fill:#3EAFE5;fill:color(display-p3 0.2431 0.6863 0.8980);fill-opacity:1;"/>
<path d="M693.657 215.633C693.684 216.107 693.695 216.616 693.688 217.153C694.247 230.9 702.42 234.501 707.767 234.659C708.306 234.615 708.864 234.592 709.442 234.592C708.929 234.651 708.366 234.677 707.767 234.659C696.579 235.577 693.698 245.697 693.654 251.27C693.656 251.421 693.657 251.574 693.657 251.728C693.654 251.579 693.653 251.426 693.654 251.27C693.486 238.064 686.026 234.636 680.921 234.483C680.293 234.554 679.636 234.592 678.948 234.592C679.543 234.504 680.209 234.461 680.921 234.483C690.969 233.334 693.598 223.387 693.688 217.153C693.667 216.66 693.657 216.153 693.657 215.633Z" fill="#FCD407" style="fill:#FCD407;fill:color(display-p3 0.9882 0.8314 0.0275);fill-opacity:1;"/>
<path d="M404.198 176.116C430.486 176.116 467.128 190.738 469.54 190.74C472.527 190.74 486.136 205.261 492.567 212.521C492.67 223.619 492.816 247.308 492.567 253.283C492.391 257.491 487.161 262.668 482.273 266.484L510.925 299.646L500.968 314.27H459.583L442.158 275.064H426.289L440.603 299.646L426.289 314.27H389.884V259.195C389.884 251.479 384.283 248.927 381.483 248.616C388.203 247.62 389.884 241.771 389.884 238.971V190.74C394.551 186.073 399.219 181.094 404.198 176.116ZM425.668 220.301V245.815H453.362C454.71 245.504 457.406 244.073 457.406 240.837V225.591C457.406 223.827 456.286 220.301 451.806 220.301H425.668Z" fill="#1E3485" style="fill:#1E3485;fill:color(display-p3 0.1183 0.2033 0.5232);fill-opacity:1;"/>
<path d="M483.855 176.116C486.843 176.117 500.45 190.637 506.88 197.897C506.984 208.995 507.129 232.685 506.88 238.659C506.631 244.633 496.197 252.557 491.011 255.772L510.925 299.646H473.897L456.472 260.44H440.603V299.646H404.198V244.571C404.198 236.854 398.597 234.303 395.796 233.992C402.517 232.996 404.198 227.146 404.198 224.346V176.116H483.855ZM439.982 205.677V231.191H467.675C469.023 230.88 471.72 229.449 471.72 226.213V210.966C471.72 209.202 470.6 205.677 466.119 205.677H439.982Z" fill="#3EAFE5" style="fill:#3EAFE5;fill:color(display-p3 0.2431 0.6863 0.8980);fill-opacity:1;"/>
<path d="M422.328 215.633C422.355 216.107 422.366 216.616 422.358 217.153C422.918 230.9 431.091 234.501 436.438 234.659C436.977 234.615 437.535 234.592 438.113 234.592C437.6 234.651 437.037 234.677 436.438 234.659C425.25 235.577 422.369 245.697 422.325 251.27C422.327 251.421 422.328 251.574 422.328 251.728C422.325 251.579 422.324 251.426 422.325 251.27C422.157 238.064 414.697 234.636 409.592 234.483C408.964 234.554 408.307 234.592 407.619 234.592C408.214 234.504 408.88 234.461 409.592 234.483C419.639 233.334 422.269 223.387 422.358 217.153C422.338 216.66 422.328 216.153 422.328 215.633Z" fill="#FCD407" style="fill:#FCD407;fill:color(display-p3 0.9882 0.8314 0.0275);fill-opacity:1;"/>
<path d="M131.932 196.964C131.932 193.479 129.443 190.533 128.198 189.496L143.134 175.183L173.316 189.496C169.333 190.243 168.545 194.786 168.649 196.964L169.271 236.17H203.499C203.395 225.798 203.25 203.871 203.499 199.142C203.748 194.412 200.491 191.155 198.831 190.118L213.767 175.805L242.394 190.118C240.402 190.865 239.282 195.408 238.971 197.586V238.348C238.971 245.567 243.742 248.409 246.128 248.927C241.149 248.678 239.282 254.217 238.971 257.017L253.907 299.957L238.971 314.271H202.876V266.663H169.271L184.207 299.957L169.271 314.271H131.932V257.64C131.932 251.168 126.539 248.72 123.842 248.305C130.065 246.562 131.828 241.771 131.932 239.592V196.964Z" fill="#1E3485" style="fill:#1E3485;fill:color(display-p3 0.1183 0.2033 0.5232);fill-opacity:1;"/>
<path d="M146.868 182.65C146.868 179.165 144.378 176.22 143.134 175.183H188.252C184.269 175.929 183.481 180.472 183.584 182.65L184.207 221.856H218.434C218.331 211.484 218.185 189.558 218.434 184.828C218.683 180.099 215.426 176.842 213.767 175.805H257.329C255.338 176.552 254.218 181.095 253.906 183.273V224.035C253.906 231.253 258.678 234.095 261.063 234.614C256.085 234.365 254.218 239.904 253.906 242.704V299.957H217.812V252.35H184.207V299.957H146.868V243.326C146.868 236.854 141.474 234.407 138.778 233.992C145.001 232.249 146.764 227.457 146.868 225.279V182.65Z" fill="#3EAFE5" style="fill:#3EAFE5;fill:color(display-p3 0.2431 0.6863 0.8980);fill-opacity:1;"/>
<path d="M158.787 218.745C158.808 219.129 158.817 219.541 158.811 219.976C159.265 231.116 165.887 234.035 170.22 234.162C170.657 234.126 171.109 234.108 171.578 234.108C171.162 234.156 170.705 234.177 170.22 234.162C161.154 234.906 158.82 243.107 158.784 247.623C158.786 247.746 158.787 247.869 158.787 247.994C158.784 247.873 158.783 247.75 158.784 247.623C158.648 236.921 152.603 234.144 148.466 234.019C147.957 234.078 147.424 234.108 146.867 234.108C147.349 234.036 147.889 234.002 148.466 234.019C156.608 233.088 158.739 225.028 158.811 219.976C158.795 219.577 158.787 219.166 158.787 218.745Z" fill="#FCD407" style="fill:#FCD407;fill:color(display-p3 0.9882 0.8314 0.0275);fill-opacity:1;"/>
<path d="M240.933 218.745C240.955 219.129 240.964 219.541 240.958 219.976C241.411 231.116 248.034 234.035 252.367 234.162C252.804 234.126 253.256 234.108 253.724 234.108C253.308 234.156 252.852 234.177 252.367 234.162C243.301 234.906 240.966 243.107 240.931 247.623C240.932 247.746 240.933 247.869 240.933 247.994C240.93 247.873 240.93 247.75 240.931 247.623C240.794 236.921 234.749 234.144 230.613 234.019C230.103 234.078 229.571 234.108 229.014 234.108C229.495 234.036 230.035 234.002 230.613 234.019C238.754 233.088 240.885 225.028 240.958 219.976C240.941 219.577 240.933 219.166 240.933 218.745Z" fill="#FCD407" style="fill:#FCD407;fill:color(display-p3 0.9882 0.8314 0.0275);fill-opacity:1;"/>
<path d="M591.826 191.051L647.834 299.957L638.188 314.581H594.315L587.781 291.556H555.731L558.22 299.957L547.329 314.581H504.701C509.783 298.609 520.445 265.17 522.437 259.196C524.428 253.222 519.948 249.861 517.458 248.927C523.183 248.678 527.104 243.016 528.349 240.215L543.285 191.051L559.776 176.427L591.826 191.051ZM556.041 262.307H579.378L567.866 224.346L556.041 262.307Z" fill="#1E3485" style="fill:#1E3485;fill:color(display-p3 0.1183 0.2033 0.5232);fill-opacity:1;"/>
<path d="M647.834 299.957H610.807L604.273 276.931H564.133L558.221 299.957H521.193C526.275 283.985 536.938 250.545 538.929 244.571C540.92 238.597 536.44 235.237 533.951 234.303C539.676 234.054 543.597 228.391 544.841 225.59L559.777 176.427H608.318L647.834 299.957ZM572.535 247.683H595.871L584.359 209.721L572.535 247.683Z" fill="#3EAFE5" style="fill:#3EAFE5;fill:color(display-p3 0.2431 0.6863 0.8980);fill-opacity:1;"/>
<path d="M554.581 222.479C554.603 222.863 554.612 223.275 554.606 223.71C555.06 234.85 561.682 237.768 566.015 237.896C566.452 237.86 566.904 237.842 567.373 237.842C566.957 237.89 566.5 237.911 566.015 237.896C556.949 238.64 554.614 246.841 554.579 251.357C554.581 251.479 554.581 251.603 554.581 251.728C554.579 251.607 554.578 251.484 554.579 251.357C554.443 240.655 548.398 237.878 544.261 237.753C543.752 237.811 543.219 237.842 542.662 237.842C543.144 237.77 543.684 237.736 544.261 237.753C552.403 236.822 554.534 228.762 554.606 223.71C554.59 223.31 554.581 222.9 554.581 222.479Z" fill="#FCD407" style="fill:#FCD407;fill:color(display-p3 0.9882 0.8314 0.0275);fill-opacity:1;"/>
<path d="M611.212 223.101C611.234 223.485 611.243 223.898 611.237 224.333C611.691 235.472 618.313 238.391 622.646 238.519C623.083 238.483 623.535 238.464 624.004 238.464C623.588 238.512 623.131 238.533 622.646 238.519C613.58 239.263 611.245 247.463 611.21 251.979C611.212 252.102 611.212 252.225 611.212 252.35C611.21 252.229 611.209 252.106 611.21 251.979C611.074 241.278 605.028 238.5 600.892 238.376C600.383 238.434 599.85 238.464 599.293 238.464C599.775 238.393 600.315 238.358 600.892 238.376C609.034 237.444 611.165 229.384 611.237 224.333C611.221 223.933 611.212 223.522 611.212 223.101Z" fill="#FCD407" style="fill:#FCD407;fill:color(display-p3 0.9882 0.8314 0.0275);fill-opacity:1;"/>
<path d="M334.808 190.74L390.816 299.646L381.17 314.27H337.297L330.762 291.245H298.713L301.202 299.646L290.312 314.27H247.683C252.765 298.298 263.428 264.859 265.419 258.885C267.41 252.911 262.93 249.55 260.441 248.616C266.166 248.367 270.086 242.705 271.331 239.904L286.267 190.74L302.758 176.116L334.808 190.74ZM299.025 261.996H322.361L310.849 224.035L299.025 261.996Z" fill="#1E3485" style="fill:#1E3485;fill:color(display-p3 0.1183 0.2033 0.5232);fill-opacity:1;"/>
<path d="M390.817 299.646H353.789L347.254 276.62H307.115L301.203 299.646H264.175C269.257 283.673 279.92 250.234 281.911 244.26C283.902 238.286 279.422 234.926 276.933 233.992C282.658 233.743 286.579 228.08 287.823 225.279L302.759 176.116H351.3L390.817 299.646ZM315.517 247.372H338.854L327.341 209.41L315.517 247.372Z" fill="#3EAFE5" style="fill:#3EAFE5;fill:color(display-p3 0.2431 0.6863 0.8980);fill-opacity:1;"/>
<path d="M296.32 220.612C296.342 220.996 296.351 221.408 296.344 221.843C296.798 232.983 303.42 235.902 307.754 236.029C308.19 235.993 308.643 235.975 309.111 235.975C308.695 236.023 308.239 236.044 307.754 236.029C298.688 236.773 296.353 244.974 296.317 249.49C296.319 249.613 296.32 249.736 296.32 249.861C296.317 249.74 296.316 249.617 296.317 249.49C296.181 238.788 290.136 236.011 285.999 235.886C285.49 235.945 284.958 235.975 284.401 235.975C284.882 235.903 285.422 235.869 285.999 235.886C294.141 234.955 296.272 226.895 296.344 221.843C296.328 221.444 296.32 221.033 296.32 220.612Z" fill="#FCD407" style="fill:#FCD407;fill:color(display-p3 0.9882 0.8314 0.0275);fill-opacity:1;"/>
<path d="M352.95 221.234C352.971 221.618 352.98 222.031 352.974 222.466C353.428 233.605 360.05 236.524 364.383 236.652C364.82 236.616 365.272 236.597 365.741 236.597C365.325 236.645 364.869 236.666 364.383 236.652C355.318 237.396 352.983 245.596 352.947 250.112C352.949 250.235 352.95 250.358 352.95 250.483C352.947 250.363 352.946 250.239 352.947 250.112C352.811 239.411 346.766 236.633 342.629 236.509C342.12 236.567 341.588 236.597 341.031 236.597C341.512 236.526 342.052 236.491 342.629 236.509C350.771 235.578 352.902 227.517 352.974 222.466C352.958 222.066 352.95 221.655 352.95 221.234Z" fill="#FCD407" style="fill:#FCD407;fill:color(display-p3 0.9882 0.8314 0.0275);fill-opacity:1;"/>
</svg>
