<svg xmlns="http://www.w3.org/2000/svg" width="743" height="315" fill="none"><path fill="#1E3485" d="m155.58 65.966-39.735-11.824-8.09-5.912-23.337-.311c-4.73-.25-5.912 2.385-5.912 3.733v7.78c.996 2.24 3.527 3.007 4.668 3.111 12.653 3.319 41.446 11.015 55.386 15.247s17.632 15.454 17.736 20.536l9.863 25.515c-10.268 29.56-26.562 28.523-32.266 30.183-20.018.103-63.975.249-79.657 0-15.683-.249-21.055-14.417-21.781-21.47v-26.449c4.262-4.667 7.996-9.023 12.663-14.313 9.646 2.307 23.185 22.886 26.232 23.648 4.978 1.245 7.882 4.875 8.712 6.534h21.47c8.712 0 10.268-3.941 9.957-5.912.747-7.219-3.423-9.231-5.601-9.334L53.302 92.414c-18.42-6.223-21.573-18.98-20.847-24.581V40.14C34.197 23.71 48.54 13.068 55.386 7.157l78.507 7.467c11.45 1.494 32.37 27.383 35.066 34.54z" style="fill:#1e3485;fill:color(display-p3 .1183 .2033 .5232);fill-opacity:1"/><path fill="#3EAFE5" d="m168.959 49.163-40.451-9.335-8.09-5.912-23.337-.31c-4.73-.25-5.912 2.385-5.912 3.733v7.78c.996 2.24 3.527 3.007 4.668 3.11 12.654 3.32 41.446 11.016 55.386 15.248s17.632 15.454 17.736 20.536l-.622 34.227c-3.734 13.194-16.077 19.811-21.781 21.47-20.018.104-63.975.249-79.657 0-15.682-.248-21.055-14.417-21.781-21.47V91.792c10.89 2.593 33.916 8.09 38.895 9.335 4.978 1.244 7.882 4.875 8.712 6.534h21.47c8.713 0 10.268-3.941 9.957-5.912.747-7.219-3.423-9.231-5.601-9.335L65.965 78.101c-18.42-6.223-21.573-18.98-20.847-24.582V25.826C46.86 9.397 61.817 1.971 69.077.311h77.479c11.45 1.494 19.706 16.18 22.403 23.337z" style="fill:#3eafe5;fill:color(display-p3 .2431 .6863 .898);fill-opacity:1"/><path fill="#FCD407" d="M69.317 32.983q.041.713.03 1.52c.56 13.747 8.733 17.348 14.08 17.506a20 20 0 0 1 1.675-.067c-.513.059-1.076.084-1.675.067-11.188.918-14.069 11.038-14.113 16.61-.168-13.205-7.628-16.633-12.733-16.787q-.942.109-1.972.11c.594-.089 1.26-.131 1.972-.11 10.048-1.149 12.678-11.095 12.767-17.33q-.03-.74-.03-1.52" style="fill:#fcd407;fill:color(display-p3 .9882 .8314 .0275);fill-opacity:1"/><path fill="#1E3485" d="M173.938 31.427c-1.992-9.46-5.601-13.483-7.157-14.313L182.962.31l37.961 17.114c-2.987.249-2.904 6.327-2.489 9.335l13.379 56.942 17.737-66.277L265.73.622l26.448 16.803 18.359 66.277c3.215-13.795 10.144-43.625 12.135-52.586s.207-12.861-.934-13.691L337.919.622l36.094 16.803-.933.622c-3.983 2.24-6.638 10.89-7.468 14.936-3.63 15.247-11.015 46.55-11.513 49.785-.498 3.236.83 3.838 1.556 3.734-2.738 1.245-4.253 3.838-4.668 4.979l.623 45.429-12.447 16.803h-47.918l-20.225-64.41-3.423 47.607-14.002 16.803h-50.408l-13.691-57.565c-3.485-10.953-11.202-13.483-14.625-13.38 7.966-2.489 8.091-11.409 7.157-15.558-1.867-7.986-6.099-26.324-8.09-35.783" style="fill:#1e3485;fill:color(display-p3 .1183 .2033 .5232);fill-opacity:1"/><path fill="#3EAFE5" d="M190.118 14.625c-1.992-9.46-5.601-13.484-7.157-14.314l54.142.311c-2.987.25-2.904 6.327-2.489 9.335L247.993 66.9 265.729.622h42.629L326.717 66.9c3.215-13.794 10.143-43.624 12.135-52.586s.207-12.86-.934-13.69h52.275l-.933.622c-3.983 2.24-6.638 10.89-7.468 14.935-3.63 15.247-11.015 46.55-11.513 49.786s.83 3.837 1.556 3.734c-2.738 1.244-4.253 3.837-4.668 4.978l-15.558 62.232h-44.184L287.199 72.5l-19.603 64.41h-48.229l-13.691-57.564c-3.485-10.953-11.202-13.484-14.625-13.38 7.966-2.49 8.09-11.41 7.157-15.558-1.867-7.987-6.099-26.324-8.09-35.783" style="fill:#3eafe5;fill:color(display-p3 .2431 .6863 .898);fill-opacity:1"/><path fill="#FCD407" d="M286.04 33.294q.041.713.03 1.52c.56 13.747 8.733 17.348 14.08 17.506a21 21 0 0 1 1.675-.067c-.513.059-1.077.084-1.675.067-11.188.918-14.069 11.038-14.113 16.611q.003.227.003.457-.005-.222-.003-.457c-.168-13.206-7.628-16.634-12.733-16.788q-.942.109-1.973.11c.595-.089 1.261-.131 1.973-.11 10.047-1.149 12.677-11.095 12.766-17.33q-.03-.74-.03-1.519" style="fill:#fcd407;fill:color(display-p3 .9882 .8314 .0275);fill-opacity:1"/><path fill="#1E3485" d="M388.327 28.938c0-5.974-2.697-9.957-4.045-11.202L400.151.622l37.65 17.425c-3.485.498-4.356 6.223-4.356 9.024v43.873c0 7.468 6.43 11.202 9.646 12.135-6.97 2.24-9.335 7.78-9.646 10.269l15.869 43.562-15.869 17.114h-45.118v-58.81c-.747-7.218-7.364-11.305-10.58-12.446 8.215-3.485 10.476-9.957 10.58-12.757z" style="fill:#1e3485;fill:color(display-p3 .1183 .2033 .5232);fill-opacity:1"/><path fill="#3EAFE5" d="M404.196 11.824c0-5.974-2.697-9.957-4.045-11.202l53.519.311c-3.485.498-4.356 6.224-4.356 9.024v43.874c0 7.467 6.431 11.201 9.646 12.135-6.97 2.24-9.335 7.779-9.646 10.268v60.676h-45.118V78.1c-.747-7.218-7.364-11.304-10.58-12.445 8.215-3.485 10.476-9.958 10.58-12.758z" style="fill:#3eafe5;fill:color(display-p3 .2431 .6863 .898);fill-opacity:1"/><path fill="#FCD407" d="M427.929 44.496c.027.473.038.983.03 1.52.56 13.747 8.732 17.348 14.079 17.506a21 21 0 0 1 1.676-.067c-.514.059-1.077.084-1.676.067-11.187.918-14.069 11.038-14.112 16.61-.168-13.206-7.628-16.633-12.733-16.787q-.942.109-1.973.11c.594-.089 1.261-.131 1.973-.11 10.047-1.149 12.677-11.095 12.766-17.33q-.03-.74-.03-1.52" style="fill:#fcd407;fill:color(display-p3 .9882 .8314 .0275);fill-opacity:1"/><path fill="#1E3485" d="M505.945 153.713h-40.762c-.207-16.284-.622-50.782-.622-58.498s-6.016-11.513-9.024-12.447c6.224-2.987 8.609-7.882 9.024-9.957v-27.07c.498-20.164 16.18-35.784 25.204-40.14L503.767.933h58.187l21.47 40.451-17.425 20.225c-.249-5.227-8.401-10.475-12.447-10.89h-41.384c-4.978 0-6.223 4.356-6.223 6.534v15.87c13.587 0 41.073-.063 42.318-.312s3.423-1.348 4.356-1.867l17.114 18.359-17.114 17.113h-46.674l17.114 30.494z" style="fill:#1e3485;fill:color(display-p3 .1183 .2033 .5232);fill-opacity:1"/><path fill="#3EAFE5" d="M523.058 136.599h-40.761c-.208-16.284-.623-50.781-.623-58.498s-6.015-11.513-9.023-12.446c6.223-2.988 8.608-7.883 9.023-9.958v-27.07C482.172 8.464 496.61 1.763 503.767.933L583.112 0v41.384c-.249-5.227-8.401-7.364-12.446-7.779h-41.384c-4.979 0-6.224 4.356-6.224 6.535v15.869c13.588 0 41.073-.063 42.318-.312 1.245-.248 3.423-1.348 4.356-1.867v35.473h-46.674z" style="fill:#3eafe5;fill:color(display-p3 .2431 .6863 .898);fill-opacity:1"/><path fill="#FCD407" d="M500.117 46.985q.041.713.031 1.52c.559 13.747 8.732 17.348 14.079 17.506a21 21 0 0 1 1.675-.067c-.513.059-1.076.084-1.675.067-11.188.918-14.069 11.038-14.113 16.611q.003.227.003.457-.005-.222-.003-.457c-.168-13.206-7.628-16.634-12.733-16.788q-.942.109-1.973.11c.595-.089 1.261-.131 1.973-.11 10.047-1.149 12.677-11.095 12.767-17.33q-.031-.74-.031-1.519" style="fill:#fcd407;fill:color(display-p3 .9882 .8314 .0275);fill-opacity:1"/><path fill="#1E3485" d="M684.55 61.298c5.974.25 14.935-.622 15.869 2.178l15.247-21.158-3.734-24.582L604.582.933l-17.736 18.981v41.384h33.605v10.58c0 7.219-7.26 10.475-10.89 11.201 6.721 0 10.06 7.053 10.89 10.58v60.676h42.94c5.29-4.667 6.223-6.534 19.292-17.114-.12-15.535-19.739-41.977-19.292-44.807.747-4.73 5.705-8.194 8.09-9.335-5.725-2.489-7.779-7.052-8.09-9.023V53.83c5.186-.104 13.691 7.156 21.159 7.467" style="fill:#1e3485;fill:color(display-p3 .1183 .2033 .5232);fill-opacity:1"/><path fill="#3EAFE5" d="M715.355.933H604.582l.311 41.074c1.494-3.983 6.327-4.98 8.402-4.98h26.448v18.048c0 7.219-7.26 10.476-10.89 11.202 6.721 0 10.06 7.053 10.89 10.58v60.675h42.94c-.311-18.669-.747-57.19 0-61.92s5.705-8.194 8.09-9.335c-5.725-2.49-7.779-7.053-8.09-9.024V37.028c5.186-.104 17.052-.249 23.026 0s8.92 3.423 9.646 4.979z" style="fill:#3eafe5;fill:color(display-p3 .2431 .6863 .898);fill-opacity:1"/><path fill="#FCD407" d="M661.92 50.097c.027.473.038.983.03 1.52.56 13.746 8.732 17.348 14.08 17.505a21 21 0 0 1 1.675-.067c-.513.06-1.077.085-1.675.067-11.188.919-14.069 11.039-14.113 16.612q.003.226.003.457-.005-.223-.003-.457c-.168-13.207-7.628-16.634-12.733-16.788q-.942.109-1.973.11c.594-.09 1.261-.131 1.973-.11 10.047-1.149 12.677-11.096 12.766-17.33q-.03-.74-.03-1.52" style="fill:#fcd407;fill:color(display-p3 .9882 .8314 .0275);fill-opacity:1"/><path fill="#1E3485" d="M25.204 175.183c21.118 0 51.4 14.313 62.232 14.313 14.188 0 21.677 14.105 23.648 21.158v25.204c0 2.987-7.676 9.958-11.514 13.07 7.468 3.485 10.788 11.201 11.514 14.624.104 6.949 7.156 17.736 6.534 27.693-.513 8.202-18.358 23.025-27.382 23.337H10.891v-53.52c0-8.961-7.26-11.823-10.891-12.134 8.712-2.49 10.89-9.128 10.89-12.136v-47.296c4.357-4.045 9.958-9.957 14.314-14.313m21.47 88.369v18.98H70.01c1.452-.104 4.356-1.617 4.356-6.845 0-6.534 1.245-12.135-5.6-12.135zm0-26.449H70.01c1.452-.103 4.356-1.618 4.356-6.845 0-6.534 1.245-12.135-5.6-12.135H46.674z" style="fill:#1e3485;fill:color(display-p3 .1183 .2033 .5232);fill-opacity:1"/><path fill="#3EAFE5" d="M101.749 175.183c14.189 0 21.678 14.106 23.648 21.159v25.203c0 2.987-7.675 9.958-11.512 13.069 7.467 3.485 10.786 11.201 11.512 14.624.104 6.949.249 22.902 0 31.116-.249 8.215-14.002 16.699-20.847 19.914H25.204v-53.519c0-8.961-7.26-11.824-10.89-12.135 8.712-2.489 10.89-9.128 10.89-12.136v-47.295zm-40.762 74.055v18.981h23.337c1.452-.104 4.356-1.618 4.357-6.845 0-6.534 1.244-12.136-5.6-12.136zm0-26.448h23.337c1.452-.104 4.357-1.618 4.357-6.846 0-6.534 1.244-12.134-5.6-12.134H60.986z" style="fill:#3eafe5;fill:color(display-p3 .2431 .6863 .898);fill-opacity:1"/><path fill="#FCD407" d="M37.734 215.633q.041.713.03 1.52c.56 13.747 8.733 17.348 14.08 17.506a21 21 0 0 1 1.675-.067c-.513.059-1.076.085-1.675.067-11.188.918-14.07 11.038-14.113 16.611-.168-13.206-7.628-16.634-12.733-16.787q-.942.108-1.973.109c.595-.088 1.261-.131 1.973-.109 10.048-1.149 12.677-11.096 12.767-17.33q-.03-.74-.03-1.52" style="fill:#fcd407;fill:color(display-p3 .9882 .8314 .0275);fill-opacity:1"/><path fill="#1E3485" d="M714.914 230.915c5.393.224 13.482-.562 14.324 1.966l13.763-19.099-3.371-22.188-96.898-15.167-16.009 17.133v37.355h30.333v9.549c0 6.516-6.553 9.456-9.83 10.111 6.067 0 9.081 6.366 9.83 9.55v54.768h38.76c4.774-4.213 5.617-5.898 17.413-15.448-.108-14.022-17.817-37.889-17.413-40.444.674-4.269 5.149-7.396 7.302-8.426-5.168-2.247-7.022-6.366-7.302-8.145v-18.256c4.681-.094 12.358 6.46 19.098 6.741" style="fill:#1e3485;fill:color(display-p3 .1183 .2033 .5232);fill-opacity:1"/><path fill="#3EAFE5" d="M742.72 176.427h-99.987l.281 37.074c1.348-3.595 5.71-4.494 7.583-4.494h23.873v16.29c0 6.517-6.553 9.456-9.83 10.112 6.067 0 9.081 6.366 9.83 9.549v54.768h38.759c-.28-16.851-.674-51.622 0-55.892.675-4.269 5.15-7.396 7.303-8.425-5.168-2.247-7.022-6.367-7.303-8.145v-18.257c4.682-.093 15.392-.224 20.784 0 5.393.225 8.052 3.09 8.707 4.494z" style="fill:#3eafe5;fill:color(display-p3 .2431 .6863 .898);fill-opacity:1"/><path fill="#FCD407" d="M693.657 215.633q.041.713.031 1.52c.559 13.747 8.732 17.348 14.079 17.506a21 21 0 0 1 1.675-.067c-.513.059-1.076.085-1.675.067-11.188.918-14.069 11.038-14.113 16.611-.168-13.206-7.628-16.634-12.733-16.787q-.942.108-1.973.109a11 11 0 0 1 1.973-.109c10.048-1.149 12.677-11.096 12.767-17.33q-.031-.74-.031-1.52" style="fill:#fcd407;fill:color(display-p3 .9882 .8314 .0275);fill-opacity:1"/><path fill="#1E3485" d="M404.198 176.116c26.288 0 62.93 14.622 65.342 14.624 2.987 0 16.596 14.521 23.027 21.781.103 11.098.249 34.787 0 40.762-.176 4.208-5.406 9.385-10.294 13.201l28.652 33.162-9.957 14.624h-41.385l-17.425-39.206h-15.869l14.314 24.582-14.314 14.624h-36.405v-55.075c0-7.716-5.601-10.268-8.401-10.579 6.72-.996 8.401-6.845 8.401-9.645V190.74c4.667-4.667 9.335-9.646 14.314-14.624m21.47 44.185v25.514h27.694c1.348-.311 4.044-1.742 4.044-4.978v-15.246c0-1.764-1.12-5.29-5.6-5.29z" style="fill:#1e3485;fill:color(display-p3 .1183 .2033 .5232);fill-opacity:1"/><path fill="#3EAFE5" d="M483.855 176.116c2.988.001 16.595 14.521 23.025 21.781.104 11.098.249 34.788 0 40.762s-10.683 13.898-15.869 17.113l19.914 43.874h-37.028l-17.425-39.206h-15.869v39.206h-36.405v-55.075c0-7.717-5.601-10.268-8.402-10.579 6.721-.996 8.402-6.846 8.402-9.646v-48.23zm-43.873 29.561v25.514h27.693c1.348-.311 4.045-1.742 4.045-4.978v-15.247c0-1.764-1.12-5.289-5.601-5.289z" style="fill:#3eafe5;fill:color(display-p3 .2431 .6863 .898);fill-opacity:1"/><path fill="#FCD407" d="M422.328 215.633q.041.713.03 1.52c.56 13.747 8.733 17.348 14.08 17.506a21 21 0 0 1 1.675-.067c-.513.059-1.076.085-1.675.067-11.188.918-14.069 11.038-14.113 16.611-.168-13.206-7.628-16.634-12.733-16.787q-.942.108-1.973.109a11 11 0 0 1 1.973-.109c10.047-1.149 12.677-11.096 12.766-17.33q-.03-.74-.03-1.52" style="fill:#fcd407;fill:color(display-p3 .9882 .8314 .0275);fill-opacity:1"/><path fill="#1E3485" d="M131.932 196.964c0-3.485-2.489-6.431-3.734-7.468l14.936-14.313 30.182 14.313c-3.983.747-4.771 5.29-4.667 7.468l.622 39.206h34.228c-.104-10.372-.249-32.299 0-37.028.249-4.73-3.008-7.987-4.668-9.024l14.936-14.313 28.627 14.313c-1.992.747-3.112 5.29-3.423 7.468v40.762c0 7.219 4.771 10.061 7.157 10.579-4.979-.249-6.846 5.29-7.157 8.09l14.936 42.94-14.936 14.314h-36.095v-47.608h-33.605l14.936 33.294-14.936 14.314h-37.339V257.64c0-6.472-5.393-8.92-8.09-9.335 6.223-1.743 7.986-6.534 8.09-8.713z" style="fill:#1e3485;fill:color(display-p3 .1183 .2033 .5232);fill-opacity:1"/><path fill="#3EAFE5" d="M146.868 182.65c0-3.485-2.49-6.43-3.734-7.467h45.118c-3.983.746-4.771 5.289-4.668 7.467l.623 39.206h34.227c-.103-10.372-.249-32.298 0-37.028s-3.008-7.986-4.667-9.023h43.562c-1.991.747-3.111 5.29-3.423 7.468v40.762c0 7.218 4.772 10.06 7.157 10.579-4.978-.249-6.845 5.29-7.157 8.09v57.253h-36.094V252.35h-33.605v47.607h-37.339v-56.631c0-6.472-5.394-8.919-8.09-9.334 6.223-1.743 7.986-6.535 8.09-8.713z" style="fill:#3eafe5;fill:color(display-p3 .2431 .6863 .898);fill-opacity:1"/><path fill="#FCD407" d="M158.787 218.745q.032.577.024 1.231c.454 11.14 7.076 14.059 11.409 14.186q.655-.054 1.358-.054a9.4 9.4 0 0 1-1.358.054c-9.066.744-11.4 8.945-11.436 13.461-.136-10.702-6.181-13.479-10.318-13.604a14 14 0 0 1-1.599.089 9 9 0 0 1 1.599-.089c8.142-.931 10.273-8.991 10.345-14.043q-.024-.599-.024-1.231M240.933 218.745q.034.577.025 1.231c.453 11.14 7.076 14.059 11.409 14.186q.655-.054 1.357-.054a9 9 0 0 1-1.357.054c-9.066.744-11.401 8.945-11.436 13.461l.002.371a11 11 0 0 1-.002-.371c-.137-10.702-6.182-13.479-10.318-13.604q-.764.089-1.599.089a9 9 0 0 1 1.599-.089c8.141-.931 10.272-8.991 10.345-14.043q-.025-.599-.025-1.231" style="fill:#fcd407;fill:color(display-p3 .9882 .8314 .0275);fill-opacity:1"/><path fill="#1E3485" d="m591.826 191.051 56.008 108.906-9.646 14.624h-43.873l-6.534-23.025h-32.05l2.489 8.401-10.891 14.624h-42.628c5.082-15.972 15.744-49.411 17.736-55.385 1.991-5.974-2.489-9.335-4.979-10.269 5.725-.249 9.646-5.911 10.891-8.712l14.936-49.164 16.491-14.624zm-35.785 71.256h23.337l-11.512-37.961z" style="fill:#1e3485;fill:color(display-p3 .1183 .2033 .5232);fill-opacity:1"/><path fill="#3EAFE5" d="M647.834 299.957h-37.027l-6.534-23.026h-40.14l-5.912 23.026h-37.028c5.082-15.972 15.745-49.412 17.736-55.386s-2.489-9.334-4.978-10.268c5.725-.249 9.646-5.912 10.89-8.713l14.936-49.163h48.541zm-75.299-52.274h23.336l-11.512-37.962z" style="fill:#3eafe5;fill:color(display-p3 .2431 .6863 .898);fill-opacity:1"/><path fill="#FCD407" d="M554.581 222.479q.033.577.025 1.231c.454 11.14 7.076 14.058 11.409 14.186q.655-.054 1.358-.054a9.4 9.4 0 0 1-1.358.054c-9.066.744-11.401 8.945-11.436 13.461-.136-10.702-6.181-13.479-10.318-13.604q-.764.088-1.599.089a9 9 0 0 1 1.599-.089c8.142-.931 10.273-8.991 10.345-14.043q-.024-.6-.025-1.231M611.212 223.101q.034.578.025 1.232c.454 11.139 7.076 14.058 11.409 14.186q.655-.054 1.358-.055a9.5 9.5 0 0 1-1.358.055c-9.066.744-11.401 8.944-11.436 13.46-.136-10.701-6.182-13.479-10.318-13.603q-.764.088-1.599.088a9 9 0 0 1 1.599-.088c8.142-.932 10.273-8.992 10.345-14.043q-.024-.6-.025-1.232" style="fill:#fcd407;fill:color(display-p3 .9882 .8314 .0275);fill-opacity:1"/><path fill="#1E3485" d="m334.808 190.74 56.008 108.906-9.646 14.624h-43.873l-6.535-23.025h-32.049l2.489 8.401-10.89 14.624h-42.629c5.082-15.972 15.745-49.411 17.736-55.385s-2.489-9.335-4.978-10.269c5.725-.249 9.645-5.911 10.89-8.712l14.936-49.164 16.491-14.624zm-35.783 71.256h23.336l-11.512-37.961z" style="fill:#1e3485;fill:color(display-p3 .1183 .2033 .5232);fill-opacity:1"/><path fill="#3EAFE5" d="M390.817 299.646h-37.028l-6.535-23.026h-40.139l-5.912 23.026h-37.028c5.082-15.973 15.745-49.412 17.736-55.386s-2.489-9.334-4.978-10.268c5.725-.249 9.646-5.912 10.89-8.713l14.936-49.163H351.3zm-75.3-52.274h23.337l-11.513-37.962z" style="fill:#3eafe5;fill:color(display-p3 .2431 .6863 .898);fill-opacity:1"/><path fill="#FCD407" d="M296.32 220.612q.034.577.024 1.231c.454 11.14 7.076 14.059 11.41 14.186a17 17 0 0 1 1.357-.054 9 9 0 0 1-1.357.054c-9.066.744-11.401 8.945-11.437 13.461-.136-10.702-6.181-13.479-10.318-13.604q-.763.089-1.598.089a9 9 0 0 1 1.598-.089c8.142-.931 10.273-8.991 10.345-14.043q-.024-.599-.024-1.231M352.95 221.234q.032.578.024 1.232c.454 11.139 7.076 14.058 11.409 14.186q.655-.055 1.358-.055a9.5 9.5 0 0 1-1.358.055c-9.065.744-11.4 8.944-11.436 13.46q.003.184.003.371-.005-.18-.003-.371c-.136-10.701-6.181-13.479-10.318-13.603q-.763.087-1.598.088a9 9 0 0 1 1.598-.088c8.142-.931 10.273-8.992 10.345-14.043q-.024-.6-.024-1.232" style="fill:#fcd407;fill:color(display-p3 .9882 .8314 .0275);fill-opacity:1"/></svg>