<svg width="244" height="308" viewBox="0 0 244 308" fill="none" xmlns="http://www.w3.org/2000/svg">
<path d="M242.976 17.1638V0H230.844C230.844 6.22313 225.784 11.2752 219.517 11.2752C213.249 11.2752 208.189 6.22313 208.189 0H198.135C198.135 6.22313 193.074 11.2752 186.807 11.2752C180.54 11.2752 175.479 6.22313 175.479 0H165.425C165.425 6.22313 160.364 11.2752 154.097 11.2752C147.83 11.2752 142.77 6.22313 142.77 0H132.715C132.715 6.22313 127.655 11.2752 121.388 11.2752C115.121 11.2752 110.06 6.22313 110.06 0H100.006C100.006 6.22313 94.9451 11.2752 88.678 11.2752C82.4109 11.2752 77.3503 6.22313 77.3503 0H67.2961C67.2961 6.22313 62.2355 11.2752 55.9684 11.2752C49.7012 11.2752 44.6406 6.22313 44.6406 0H34.5864C34.5864 6.22313 29.5258 11.2752 23.2922 11.2752C17.0586 11.2752 12.1321 6.22313 12.1321 0H0V17.1638C6.2336 17.1638 11.3277 22.2159 11.3277 28.439C11.3277 34.6622 6.26712 39.7143 0 39.7143V48.4802C6.2336 48.4802 11.3277 53.5323 11.3277 59.7554C11.3277 65.9785 6.26712 71.0307 0 71.0307V79.7966C6.2336 79.7966 11.3277 84.8487 11.3277 91.0718C11.3277 97.2949 6.26712 102.347 0 102.347V111.113C6.2336 111.113 11.3277 116.165 11.3277 122.388C11.3277 128.611 6.26712 133.697 0 133.697V142.463C6.2336 142.463 11.3277 147.515 11.3277 153.771C11.3277 160.028 6.26712 165.08 0 165.08V173.846C6.2336 173.846 11.3277 178.898 11.3277 185.155C11.3277 191.411 6.26712 196.464 0 196.464V205.229C6.2336 205.229 11.3277 210.282 11.3277 216.538C11.3277 222.795 6.26712 227.847 0 227.847V236.613C6.2336 236.613 11.3277 241.665 11.3277 247.921C11.3277 254.178 6.26712 259.23 0 259.23V267.996C6.2336 267.996 11.3277 273.048 11.3277 279.305C11.3277 285.561 6.26712 290.613 0 290.613V307.777H12.1321C12.1321 301.554 17.1927 296.469 23.4598 296.469C29.7269 296.469 34.754 301.521 34.754 307.777H44.8082C44.8082 301.554 49.8688 296.469 56.1359 296.469C62.403 296.469 67.4637 301.521 67.4637 307.777H77.5179C77.5179 301.554 82.5785 296.469 88.8456 296.469C95.1127 296.469 100.173 301.521 100.173 307.777H110.228C110.228 301.554 115.288 296.469 121.555 296.469C127.822 296.469 132.883 301.521 132.883 307.777H142.937C142.937 301.554 147.998 296.469 154.265 296.469C160.532 296.469 165.593 301.521 165.593 307.777H175.647C175.647 301.554 180.707 296.469 186.975 296.469C193.242 296.469 198.302 301.521 198.302 307.777H208.356C208.356 301.554 213.417 296.469 219.684 296.469C225.951 296.469 231.012 301.521 231.012 307.777H243.144V290.613C236.91 290.613 231.816 285.561 231.816 279.305C231.816 273.048 236.877 267.996 243.144 267.996V259.23C236.91 259.23 231.816 254.178 231.816 247.921C231.816 241.665 236.877 236.613 243.144 236.613V227.847C236.91 227.847 231.816 222.795 231.816 216.538C231.816 210.282 236.877 205.229 243.144 205.229V196.464C236.91 196.464 231.816 191.411 231.816 185.155C231.816 178.898 236.877 173.846 243.144 173.846V165.08C236.91 165.08 231.816 160.028 231.816 153.771C231.816 147.515 236.877 142.463 243.144 142.463V133.697C236.91 133.697 231.816 128.645 231.816 122.388C231.816 116.132 236.877 111.113 243.144 111.113V102.347C236.91 102.347 231.816 97.2949 231.816 91.0718C231.816 84.8487 236.877 79.7966 243.144 79.7966V71.0307C236.91 71.0307 231.816 65.9785 231.816 59.7554C231.816 53.5323 236.877 48.4802 243.144 48.4802V39.7143C236.91 39.7143 231.816 34.6622 231.816 28.439C231.816 22.2159 236.877 17.1638 243.144 17.1638H242.976Z" fill="#FFFBE2" style="fill:#FFFBE2;fill:color(display-p3 1.0000 0.9831 0.8872);fill-opacity:1;"/>
</svg>
