<svg width="66" height="70" viewBox="0 0 66 70" fill="none" xmlns="http://www.w3.org/2000/svg">
<g clip-path="url(#clip0_46_3594)">
<path d="M0.942221 42.91C0.075117 43.0784 -0.37093 41.9122 0.387117 41.4588L21.6266 28.7557C25.4239 26.4846 30.2234 26.7698 33.7243 29.4717C34.4478 30.0471 38.8965 33.372 38.8965 33.372C38.8087 33.4251 38.9603 33.2916 38.8965 33.372C42.4011 36.0949 43.8504 40.7054 42.5338 44.9438L34.9531 69.3499C34.6906 70.1952 33.4488 70.0333 33.4119 69.1489L32.4136 45.3163L31.825 46.2369L19.5049 64.3806C19.1518 64.9007 18.3398 64.5583 18.4657 63.9423L20.6252 53.3874L10.6693 59.9708C10.1411 60.3201 9.51876 59.684 9.87947 59.1636L24.2829 38.3814L0.942221 42.91Z" fill="#BB4B22" style="fill:#BB4B22;fill:color(display-p3 0.7333 0.2941 0.1333);fill-opacity:1;"/>
<path d="M33.991 28.5655C33.7766 28.811 33.5818 29.0339 33.2902 29.1911L40.9557 35.6266C40.5861 34.4041 41.172 33.4845 41.7394 32.3862C41.8279 32.2148 41.9151 32.0428 41.9997 31.8692C42.2674 31.3075 42.5458 30.7511 42.8262 30.1955L42.9863 29.8882C43.1985 29.4658 43.4241 29.1669 43.7707 28.8535L43.9384 28.7073C44.3166 28.37 44.6869 28.0691 45.1269 27.8136C45.3335 27.708 45.3335 27.708 45.475 27.5919C45.5068 27.3866 45.5068 27.3866 45.4654 27.1918C45.2266 27.0563 45.2266 27.0563 44.8883 26.996C44.1643 26.8745 43.6155 26.7645 43.0601 26.2497C42.2241 25.4384 41.0899 24.8837 39.9004 24.8986C37.4645 25.199 35.6011 26.8104 33.9986 28.5567L33.991 28.5655Z" fill="#BB4B22" style="fill:#BB4B22;fill:color(display-p3 0.7333 0.2941 0.1333);fill-opacity:1;"/>
<path d="M35.506 1.66047C37.1088 -0.563312 40.4237 -0.551473 42.0099 1.68407C43.1808 3.33402 45.3999 3.84924 47.178 2.884C49.0509 1.86733 51.269 2.51733 52.3795 4.12671C52.7073 4.5934 52.9415 5.14215 53.0456 5.75544C53.1454 6.34291 53.3698 6.88116 53.6885 7.3457C54.4539 8.44237 55.7475 9.12061 57.1613 9.05209C58.627 8.98106 59.8974 9.69388 60.6447 10.7758C61.3061 11.7172 61.5692 12.9439 61.2142 14.1781C60.8735 15.3625 61.1042 16.5888 61.7579 17.5446C62.1759 18.1456 62.7623 18.6373 63.4795 18.9411C64.2167 19.2532 64.8002 19.7502 65.2119 20.3481C66.2283 21.7995 66.2217 23.86 64.921 25.3166C63.6819 26.7041 63.5741 28.7418 64.603 30.2419C64.6883 30.3644 64.7814 30.483 64.8819 30.5974C64.9921 30.7225 65.0928 30.8521 65.184 30.9853C66.6201 33.0418 65.8169 35.9707 63.4289 36.9619C61.5596 37.7376 60.5633 39.788 61.1081 41.7369C61.8466 44.3769 59.7708 46.9619 57.0335 46.8094C55.0139 46.6967 53.2275 48.1111 52.8728 50.1026C52.3925 52.7998 49.4024 54.2273 47.0044 52.9027C46.2716 52.4979 45.4615 52.3458 44.6795 52.4233L47.9367 42.1476C49.1458 38.3326 48.4317 34.2491 46.1719 31.1112C46.134 30.9525 46.1083 30.7976 46.0934 30.645C46.0922 30.6311 46.0907 30.6169 46.0897 30.603C46.0672 30.3392 46.077 30.0835 46.1125 29.8325C46.122 29.7653 46.1332 29.6985 46.1462 29.632C46.2315 29.196 46.3899 28.7726 46.5855 28.3446C46.6092 28.2927 46.6334 28.2407 46.6583 28.1886C46.7861 27.9197 46.9267 27.6481 47.0714 27.3702C47.1782 27.1656 47.2831 26.96 47.3848 26.7532C47.7075 26.0825 48.0426 25.4188 48.3802 24.7556L48.5728 24.3888C48.8282 23.8846 49.0981 23.527 49.5117 23.1511L49.7117 22.9757C50.1629 22.571 50.6041 22.2097 51.1277 21.9017C51.1857 21.8716 51.2299 21.8486 51.2658 21.8292C51.3064 21.8075 51.3365 21.7903 51.3639 21.7727L51.3648 21.7719C51.4162 21.7387 51.4582 21.7039 51.5421 21.6347C51.5421 21.6336 51.5423 21.6326 51.5425 21.6315C51.5467 21.6052 51.5506 21.5817 51.554 21.5605C51.5553 21.5516 51.5567 21.5431 51.5579 21.5349C51.5738 21.429 51.5758 21.3824 51.5616 21.2963L51.5579 21.2771C51.5521 21.2449 51.5445 21.207 51.5347 21.1593C51.2534 21.0005 51.2534 21.0005 50.8535 20.9323C49.9974 20.7951 49.3487 20.6697 48.6965 20.0635C47.7529 19.1448 46.4808 18.5104 45.1332 18.4888C45.065 18.4871 44.9966 18.487 44.9279 18.4884C42.041 18.8696 39.8187 20.8035 37.9043 22.8949L37.895 22.9054C37.6576 23.1778 37.4401 23.4269 37.1333 23.6131C33.2488 20.9032 28.1634 20.6072 23.9908 22.8467C23.7859 22.9558 23.5831 23.0711 23.3828 23.1924L13.0476 29.4531C13.6478 28.1835 13.5434 26.6652 12.7321 25.4814C12.6468 25.3589 12.5539 25.2401 12.4533 25.1257C12.3434 25.0008 12.2429 24.8712 12.1516 24.7385C10.7156 22.6813 11.5175 19.7516 13.9062 18.7614C15.7756 17.9864 16.7715 15.9366 16.2265 13.9878C15.4882 11.3477 17.5641 8.76282 20.3012 8.91552C22.3209 9.02818 24.1072 7.61373 24.4618 5.62214C24.9423 2.92499 27.9324 1.49744 30.3304 2.8222C32.1009 3.80032 34.3231 3.30139 35.506 1.66047Z" fill="#0A451C" style="fill:#0A451C;fill:color(display-p3 0.0392 0.2706 0.1098);fill-opacity:1;"/>
</g>
<defs>
<clipPath id="clip0_46_3594">
<rect width="66" height="69.9111" fill="white" style="fill:white;fill-opacity:1;"/>
</clipPath>
</defs>
</svg>
