<svg width="86" height="90" viewBox="0 0 86 90" fill="none" xmlns="http://www.w3.org/2000/svg">
<path opacity="0.8" d="M31.5765 47.3685C36.745 47.3685 39.3295 47.3688 40.3285 49.0678C41.3271 50.7671 40.0882 53.0558 37.6104 57.6333L33.2891 65.6179C32.396 67.2677 31.9493 68.0928 31.9547 68.9898C31.9603 69.8867 32.4171 70.7064 33.3299 72.3449L37.406 79.6607C39.9705 84.2635 41.2528 86.565 40.2572 88.2825C39.2617 90 36.6453 90 31.4128 90H10.0469C4.92458 90 2.36342 90 1.3622 88.3141C0.36115 86.6284 1.56853 84.349 3.98325 79.7903L8.13347 71.9555C8.98167 70.3543 9.40578 69.5534 9.40578 68.6842C9.40572 67.8151 8.98161 67.0145 8.13347 65.4133L3.98325 57.5784C1.56847 53.0197 0.360978 50.7401 1.3622 49.0544C2.36347 47.3688 4.92469 47.3685 10.0469 47.3685H31.5765ZM51.8205 73.229C52.5626 73.229 53.2365 73.372 53.8221 73.6517C54.4104 73.937 54.8717 74.2943 55.1911 74.7169C55.5192 75.154 55.6879 75.5823 55.6879 75.993C55.6879 76.2607 55.5873 76.4986 55.3891 76.701C55.1942 76.9033 54.9427 77.0073 54.6647 77.0073C54.369 77.0073 54.1324 76.9329 53.964 76.7842C53.8252 76.6623 53.6829 76.4688 53.5263 76.1922C53.3224 75.8324 53.0828 75.5616 52.8169 75.389C52.5567 75.2225 52.2255 75.1361 51.8323 75.1361C51.1995 75.1361 50.7086 75.3532 50.336 75.8026C49.9547 76.2576 49.7626 76.9332 49.7626 77.8048C49.7626 78.3937 49.8482 78.8817 50.0197 79.2625C50.1853 79.6283 50.4101 79.8932 50.7058 80.0717C51.0043 80.2502 51.362 80.3397 51.7732 80.3397C52.2137 80.3397 52.5891 80.2354 52.8879 80.0359C53.1892 79.8338 53.4112 79.5391 53.568 79.1375C53.6508 78.9024 53.7601 78.6941 53.893 78.5335C54.0615 78.3255 54.3158 78.2215 54.6529 78.2215H54.6591C54.9427 78.2215 55.1911 78.3167 55.395 78.504C55.6048 78.6972 55.7172 78.9354 55.7172 79.2358C55.7172 79.5362 55.6406 79.8605 55.4868 80.1999C55.3361 80.5358 55.0993 80.8632 54.783 81.1787C54.4636 81.497 54.0527 81.7556 53.5649 81.952C53.08 82.1481 52.5094 82.2467 51.8706 82.2467C51.3947 82.2467 50.9539 82.205 50.5608 82.1189C50.1586 82.0325 49.7894 81.8923 49.4582 81.7079C49.127 81.5206 48.8194 81.2705 48.5415 80.9672C48.2961 80.6935 48.083 80.3843 47.9117 80.0453C47.7371 79.709 47.607 79.343 47.5214 78.9621C47.4355 78.5813 47.3913 78.1737 47.3913 77.7511C47.3913 77.061 47.5008 76.4304 47.7165 75.8799C47.9354 75.3265 48.2517 74.8416 48.6597 74.4457C49.0647 74.0501 49.5466 73.7437 50.0907 73.5385C50.6289 73.3333 51.2113 73.229 51.8205 73.229ZM70.1283 73.2239C70.4744 73.2239 70.7583 73.3339 70.98 73.557C71.1988 73.7801 71.3112 74.1044 71.3112 74.5208V78.4361C71.3112 79.1025 71.2371 79.6678 71.0983 80.12C70.9504 80.5989 70.6696 81.0215 70.2615 81.3785C69.9157 81.6789 69.5076 81.902 69.0522 82.0387C68.6086 82.1726 68.0853 82.2411 67.4998 82.2411C66.811 82.2411 66.2049 82.17 65.6994 82.0271C65.1761 81.8784 64.7384 81.6462 64.4013 81.3307C64.0614 81.0124 63.8102 80.6049 63.6533 80.114C63.5026 79.6439 63.4257 79.0787 63.4257 78.4361V74.5208C63.4257 74.1104 63.535 73.7889 63.7479 73.5658C63.9637 73.3396 64.236 73.2239 64.5906 73.2239C64.9454 73.2239 65.2352 73.3396 65.451 73.5658C65.6639 73.7918 65.7734 74.1132 65.7734 74.5239V78.5284C65.7734 78.9479 65.8207 79.2989 65.9182 79.5698C66.0041 79.8105 66.1517 79.9921 66.3705 80.126C66.598 80.2658 66.9354 80.3371 67.3759 80.3371C67.9671 80.3371 68.3782 80.2004 68.6027 79.9296C68.8393 79.644 68.9607 79.183 68.9607 78.5611V74.5239C68.9607 74.1104 69.0671 73.7858 69.28 73.5658C69.4958 73.3396 69.7797 73.2265 70.1258 73.2265L70.1283 73.2239ZM76.7751 73.3666C77.2038 73.3666 77.5792 73.3902 77.8986 73.4408C78.2357 73.4945 78.5432 73.5988 78.8153 73.7534C79.0459 73.8841 79.256 74.051 79.4332 74.2502C79.6137 74.4526 79.7556 74.6816 79.8503 74.9255C79.9477 75.1725 79.995 75.4342 79.995 75.7079C79.995 76.4398 79.6934 77.0258 79.0932 77.4484V77.4513C80.1578 77.9808 80.4031 78.8257 80.4031 79.4893C80.4031 80.0038 80.2581 80.4738 79.9773 80.8874C79.6965 81.3009 79.3121 81.6073 78.8389 81.8037C78.5463 81.9168 78.2179 81.9972 77.8512 82.0418C77.4995 82.0836 77.0827 82.1072 76.6157 82.1072H73.9661C73.4992 82.1072 73.1621 82.0003 72.9404 81.7801C72.7185 81.5629 72.6061 81.2324 72.6061 80.7981V74.6757C72.6061 74.2323 72.7244 73.8961 72.9522 73.6818C73.177 73.4706 73.511 73.3666 73.9661 73.3666H76.7751ZM57.8317 73.229C58.1775 73.229 58.4614 73.3393 58.6833 73.5624C58.9019 73.7855 59.0142 74.1098 59.0145 74.5265V80.155H61.6872C62.0421 80.155 62.326 80.2442 62.533 80.4198C62.7487 80.6071 62.8639 80.8481 62.8639 81.1366C62.8639 81.4254 62.7518 81.6755 62.533 81.854C62.3288 82.0205 62.0449 82.1069 61.6872 82.1069H58.0387C57.5714 82.1066 57.2374 81.9995 57.0096 81.7855C56.782 81.5683 56.6668 81.2378 56.6668 80.7976V74.5265C56.6668 74.1158 56.7761 73.7943 56.989 73.5712C57.2048 73.3453 57.4858 73.229 57.8317 73.229ZM74.9538 80.2718H76.5447C78.0287 80.2715 78.0287 79.6113 78.0287 79.3643C78.0287 79.0579 77.9281 78.8555 77.7124 78.7245C77.4522 78.5699 77.0385 78.4895 76.4856 78.4895H74.9538V80.2718ZM83.1381 72.8834C84.3916 72.8837 85.4117 73.91 85.4117 75.1713C85.4117 76.4327 84.3916 77.4592 83.1381 77.4592C81.8842 77.4592 80.8644 76.4329 80.8644 75.1713C80.8644 73.91 81.8842 72.8834 83.1381 72.8834ZM83.1381 73.4754C82.2095 73.4754 81.4556 74.2343 81.4556 75.1682C81.4556 76.1024 82.2095 76.8612 83.1381 76.8612C84.0663 76.8612 84.8202 76.1024 84.8202 75.1682C84.8202 74.2343 84.0663 73.4757 83.1381 73.4754ZM74.9538 76.7103L74.9569 76.7075H76.2696C76.6746 76.7075 76.9852 76.6748 77.1919 76.6063C77.3606 76.5529 77.4848 76.4514 77.5736 76.2968C77.6504 76.178 77.6831 76.062 77.6831 75.9253C77.6831 75.5505 77.5262 75.4371 77.393 75.3777C77.1182 75.2586 76.6805 75.1992 76.0834 75.1992H74.9538V76.7103ZM83.3273 73.9785C83.4338 73.9785 83.5253 73.9813 83.5991 73.9902C83.685 73.999 83.7647 74.02 83.8328 74.0498C83.9154 74.0825 83.9925 74.1331 84.0604 74.1956C84.1255 74.2579 84.1787 74.3355 84.2142 74.4216C84.2497 74.508 84.2674 74.5972 84.2677 74.6924C84.2677 74.8857 84.2052 75.0463 84.0841 75.1654C84.028 75.2216 83.9601 75.2697 83.8773 75.3083C83.8833 75.314 83.8889 75.32 83.8948 75.3259C83.9717 75.4092 84.0398 75.4985 84.1021 75.5908L84.099 75.588C84.1581 75.6832 84.2054 75.7662 84.2409 75.8435C84.2823 75.9359 84.3001 75.9984 84.3001 76.049C84.3001 76.1084 84.282 76.1649 84.2466 76.2155C84.2142 76.263 84.17 76.3019 84.1139 76.3286C84.0607 76.3556 84.0041 76.3673 83.939 76.3673C83.8624 76.3673 83.7943 76.3494 83.7351 76.3107C83.685 76.2781 83.6436 76.2366 83.6081 76.1888C83.5844 76.1561 83.549 76.1024 83.5047 76.0339L83.3273 75.7577C83.2682 75.6624 83.2178 75.5937 83.1735 75.5462C83.1409 75.5104 83.1054 75.4865 83.0758 75.4749C83.055 75.4658 83.0077 75.4538 82.9339 75.4538H82.9251V75.9657C82.9251 76.0936 82.8896 76.1948 82.8218 76.2633C82.7536 76.3318 82.6621 76.3673 82.5584 76.3673C82.4165 76.3673 82.3309 76.3051 82.2836 76.2545C82.2185 76.186 82.1859 76.0876 82.1859 75.9657V74.3829C82.1859 74.2519 82.2244 74.1479 82.2982 74.0794C82.3664 74.0112 82.4728 73.9785 82.6058 73.9785H83.3273ZM82.9251 74.853L82.9282 74.8499H83.1764C83.271 74.8499 83.3479 74.8439 83.4101 74.8291C83.4515 74.8203 83.4839 74.8053 83.5016 74.7845C83.5163 74.7666 83.5194 74.7371 83.5194 74.7132C83.5194 74.6893 83.5135 74.6686 83.5016 74.6507C83.4867 74.6328 83.469 74.618 83.4394 74.606C83.4301 74.6029 83.3794 74.5853 83.1882 74.5853H82.9251V74.853ZM67.0887 55.2525C68.5317 55.2525 69.7971 55.5352 70.8437 56.0914C71.9051 56.6567 72.7244 57.4719 73.2716 58.5163C73.8126 59.5426 74.0844 60.7624 74.0844 62.1338L74.0903 62.1369C74.0903 63.1484 73.9396 64.0823 73.647 64.9153C73.3482 65.7631 72.8928 66.5072 72.2958 67.1288C71.6956 67.7537 70.9535 68.2389 70.0841 68.566C69.2268 68.8903 68.2332 69.054 67.1453 69.054C66.057 69.054 65.0637 68.8843 64.1943 68.5509C63.3134 68.2147 62.5651 67.7299 61.9736 67.1111C61.3825 66.4924 60.9302 65.7427 60.6286 64.8798C60.3328 64.032 60.1819 63.1274 60.1819 62.1187C60.1819 61.1103 60.3388 60.1701 60.6491 59.3252C60.9626 58.4686 61.4239 57.7276 62.0241 57.1206C62.6242 56.5169 63.3604 56.0468 64.2149 55.7285C65.0575 55.413 66.0244 55.2525 67.0887 55.2525ZM75.9206 55.2468C76.4144 55.2468 76.8134 55.3957 77.1063 55.6873C77.3398 55.9192 77.6414 56.3208 78.0318 56.9128L79.6669 59.3999L81.8696 56.2523C82.0056 56.0528 82.1416 55.8803 82.2746 55.7436C82.4314 55.583 82.6089 55.4579 82.8069 55.3747C83.002 55.2914 83.2268 55.2496 83.4721 55.2496C83.9216 55.2496 84.3001 55.3835 84.5958 55.6452C84.9061 55.9189 85.0686 56.2702 85.0686 56.657C85.0686 57.1359 84.8143 57.7279 84.2882 58.4657L81.8518 61.8871L84.4921 65.7068C84.7614 66.0848 84.9535 66.3944 85.0805 66.6561C85.2255 66.9537 85.2996 67.2393 85.2996 67.5218C85.2996 67.8046 85.2252 68.0692 85.0774 68.3042C84.9326 68.5362 84.7259 68.7209 84.4685 68.8548C84.2173 68.9827 83.9362 69.048 83.6318 69.048C83.3037 69.048 83.0139 68.9795 82.7714 68.8428C82.5438 68.7118 82.3515 68.5453 82.2067 68.3489C82.0974 68.2002 81.8904 67.9115 81.5919 67.4803L79.6106 64.5527L77.4967 67.5843C77.3015 67.8668 77.1624 68.0692 77.0796 68.1852C76.9821 68.319 76.8638 68.4532 76.7278 68.5811C76.574 68.7269 76.3876 68.8425 76.1809 68.9261C75.9708 69.0094 75.7314 69.0511 75.4655 69.0511C75.0307 69.0511 74.6581 68.9201 74.3627 68.6612C74.0461 68.3875 73.8864 67.9979 73.8864 67.5068C73.8864 66.9832 74.132 66.3944 74.6344 65.7012L77.4198 61.8811L75.0988 58.5163L75.0926 58.5104C74.8414 58.1355 74.6522 57.8112 74.5252 57.5375C74.3801 57.2283 74.3063 56.9185 74.3063 56.6212C74.3063 56.3623 74.392 55.9815 74.806 55.6364C75.1163 55.3775 75.4889 55.2468 75.9206 55.2468ZM53.8043 55.467C54.458 55.467 55.0373 55.5057 55.5223 55.583C56.0396 55.6663 56.51 55.8271 56.924 56.0622C57.2785 56.2614 57.5979 56.5172 57.87 56.8207C58.1448 57.13 58.3606 57.4753 58.5056 57.8501C58.6535 58.225 58.7275 58.6294 58.7275 59.0461C58.7275 60.1707 58.2603 61.0663 57.3377 61.7148C58.9788 62.5209 59.3542 63.818 59.3545 64.8355C59.3545 65.6239 59.1382 66.3438 58.7067 66.9744C58.2778 67.6022 57.6925 68.0755 56.9682 68.3727C56.5218 68.5484 56.0163 68.6706 55.4575 68.7388C54.9162 68.8073 54.2777 68.84 53.5621 68.84H49.4996V68.8369C48.7842 68.8369 48.2725 68.6763 47.9326 68.3401C47.5954 68.0098 47.4239 67.5042 47.4239 66.8437V57.4605C47.4239 56.7852 47.6014 56.2762 47.95 55.9488C48.2961 55.6245 48.802 55.467 49.4996 55.467H53.8043ZM67.083 58.1562C66.6071 58.1562 66.1604 58.2395 65.7613 58.4061C65.3679 58.5726 65.0248 58.8136 64.741 59.126C64.4574 59.4414 64.2236 59.8578 64.0552 60.3606C63.8809 60.8753 63.7921 61.4613 63.7921 62.1187C63.7921 62.7764 63.8809 63.3775 64.0552 63.901C64.2267 64.4126 64.4661 64.8383 64.7677 65.1654C65.0693 65.4926 65.4183 65.7427 65.8086 65.9032C66.2018 66.0669 66.6454 66.1502 67.1216 66.1502C67.7305 66.1502 68.2954 66.0073 68.8038 65.7216C69.3065 65.4391 69.6969 65.0105 70.0013 64.4097C70.3088 63.7998 70.4654 63.0262 70.4654 62.1161C70.4654 61.274 70.3207 60.5391 70.0368 59.9323C69.7588 59.3403 69.3772 58.9088 68.8689 58.6084C68.3574 58.3049 67.7572 58.1531 67.0861 58.1531L67.083 58.1562ZM51.0046 66.0493H53.4497C55.7352 66.0493 55.7352 65.0319 55.7352 64.6482C55.7352 64.1752 55.5786 63.8626 55.2446 63.6603C54.8455 63.4192 54.2127 63.2973 53.361 63.2973H51.0046V66.0493ZM51.0046 60.5902H53.027C53.6477 60.5899 54.1268 60.5365 54.4462 60.4325C54.7064 60.3461 54.8985 60.1886 55.0373 59.9507C55.1528 59.7663 55.2029 59.5844 55.2029 59.3732C55.2029 58.7963 54.9635 58.6178 54.7537 58.5286C54.3366 58.3469 53.6596 58.2549 52.7462 58.2549H51.0046V60.5902ZM64.2892 0.000277549C75.9547 0.00028458 85.4117 9.54375 85.4117 21.3161C85.4117 33.0883 75.9547 42.6318 64.2892 42.6318C52.6237 42.6318 43.1668 33.0883 43.1668 21.3161C43.1668 9.54372 52.6237 0.000277549 64.2892 0.000277549ZM27.4685 0C27.4775 1.18715e-05 27.4849 0.00756209 27.485 0.016653C27.485 0.0254683 27.492 0.032807 27.5007 0.033306C33.6149 0.380393 38.4725 5.35549 38.4646 11.4681C38.4646 15.658 36.1798 19.3156 32.7723 21.3133C36.1764 23.3098 38.4728 26.9702 38.4728 31.1634C38.4728 37.2762 33.6149 42.2515 27.5007 42.5986C27.492 42.5991 27.4851 42.6065 27.485 42.6151C27.4849 42.6241 27.4775 42.6315 27.4685 42.6315H7.79768C4.5564 42.6315 2.9357 42.6315 1.92877 41.6155C0.921947 40.5991 0.921875 38.9635 0.921875 35.6928V6.93874C0.921875 3.66793 0.921851 2.03224 1.92877 1.01611C2.93571 5.82067e-05 4.55651 0 7.79768 0H27.4685ZM58.7577 11.8264C57.6886 10.7474 55.9549 10.7474 54.8855 11.8264C53.8164 12.9054 53.8164 14.6549 54.8855 15.734L69.8216 30.8067C70.8907 31.8855 72.6244 31.8855 73.6938 30.8067C74.7629 29.7275 74.7629 27.978 73.6938 26.8989L58.7577 11.8264Z" fill="black"/>
</svg>
