<svg width="49" height="88" viewBox="0 0 49 88" fill="none" xmlns="http://www.w3.org/2000/svg">
<g opacity="0.2">
<path d="M27.3151 85.593C27.3151 85.593 21.7986 77.3216 11.6011 82.6789C16.1354 90.8112 27.3151 85.593 27.3151 85.593Z" fill="black"/>
<path d="M10.0262 81.6369C10.0262 81.6369 6.54645 72.3235 16.8578 67.1887C20.7995 75.6242 10.0262 81.6369 10.0262 81.6369Z" fill="black"/>
<path d="M37.9772 76.633C37.9772 76.633 30.0364 70.6505 22.1834 79.0779C29.1513 85.2539 37.9772 76.633 37.9772 76.633Z" fill="black"/>
<path d="M20.3525 77.3385C20.3525 77.3385 13.9894 69.6992 22.0234 61.4442C28.5322 68.1022 20.3525 77.3385 20.3525 77.3385Z" fill="black"/>
<path d="M44.5607 68.3194C44.5607 68.3194 36.0583 63.166 29.093 72.3407C36.6468 77.7844 44.5607 68.3194 44.5607 68.3194Z" fill="black"/>
<path d="M29.0112 69.5174C29.0112 69.5174 21.9119 62.557 29.0747 53.5356C36.2203 59.5051 29.0112 69.5174 29.0112 69.5174Z" fill="black"/>
<path d="M47.6191 57.3256C47.6191 57.3256 37.9837 54.8747 33.9956 65.6815C42.8084 68.6865 47.6191 57.3256 47.6191 57.3256Z" fill="black"/>
<path d="M34.3709 61.0891C34.3709 61.0891 25.5508 56.5007 29.7724 45.7831C38.3479 49.4101 34.3709 61.0891 34.3709 61.0891Z" fill="black"/>
<path d="M48.454 45.3625C48.454 45.3625 38.5337 46.0215 38.0947 57.5323C47.4048 57.6553 48.454 45.3625 48.454 45.3625Z" fill="black"/>
<path d="M38.9606 51.4341C38.9606 51.4341 29.1522 49.8081 29.8409 38.3096C39.1185 39.0976 38.9606 51.4341 38.9606 51.4341Z" fill="black"/>
<path d="M47.817 35.9674C47.817 35.9674 39.6662 37.6915 40.6682 47.292C48.4057 46.2891 47.817 35.9674 47.817 35.9674Z" fill="black"/>
<path d="M37.7606 38.2419C37.7606 38.2419 29.6116 39.9748 26.6304 30.7941C34.1089 28.5699 37.7606 38.2419 37.7606 38.2419Z" fill="black"/>
<path d="M44.7784 25.8674C44.7784 25.8674 37.2008 29.189 40.1128 38.3219C47.4341 35.785 44.7784 25.8674 44.7784 25.8674Z" fill="black"/>
<path d="M34.6279 29.4196C34.6279 29.4196 26.6595 31.6462 23.1312 22.7332C30.4044 20.0615 34.6279 29.4196 34.6279 29.4196Z" fill="black"/>
<path d="M32.9712 8.34695C32.9712 8.34695 27.3699 14.4362 33.7098 21.6262C39.392 16.3584 32.9712 8.34695 32.9712 8.34695Z" fill="black"/>
<path d="M26.2629 2.218C26.2629 2.218 21.676 9.10381 29.0563 15.221C33.8509 9.13418 26.2629 2.218 26.2629 2.218Z" fill="black"/>
<path d="M16.3274 0.621094C16.3274 0.621094 15.5452 8.09855 24.067 9.90314C25.3536 2.98078 16.3274 0.621094 16.3274 0.621094Z" fill="black"/>
<path d="M39.6947 16.8681C39.6947 16.8681 32.761 21.3821 37.1248 29.9172C43.9337 26.2192 39.6947 16.8681 39.6947 16.8681Z" fill="black"/>
<path d="M30.463 20.2633C30.463 20.2633 23.0276 23.8921 17.9479 15.7628C24.6191 11.8217 30.463 20.2633 30.463 20.2633Z" fill="black"/>
<path d="M22.8219 13.3945C22.8219 13.3945 17.015 17.7823 11.2574 11.6211C16.3519 7.09271 22.8219 13.3945 22.8219 13.3945Z" fill="black"/>
<path d="M17.262 7.90378C17.262 7.90378 10.6999 11.0521 6.27941 3.87091C12.1712 0.443458 17.262 7.90378 17.262 7.90378Z" fill="black"/>
<path d="M7.65979 82.8199C7.65979 82.8199 2.55368 83.4582 1.91542 83.4582C1.27715 83.4582 -0.318504 85.6921 0.319759 86.3304C0.958023 86.9687 7.65979 83.7773 7.65979 83.7773C47.5513 72.6077 40.8495 33.9928 35.4243 26.9719C25.212 12.2918 18.3384 8.46226 18.3384 8.46226C18.3384 8.46226 25.212 12.2918 35.114 27.291C40.2112 36.2267 45.3173 71.0121 7.65979 82.8199Z" fill="black"/>
</g>
</svg>
