<svg width="50" height="88" viewBox="0 0 50 88" fill="none" xmlns="http://www.w3.org/2000/svg">
<g opacity="0.2">
<path d="M22.0218 85.593C22.0218 85.593 27.5382 77.3216 37.7357 82.6789C33.2014 90.8112 22.0218 85.593 22.0218 85.593Z" fill="black"/>
<path d="M39.3106 81.6369C39.3106 81.6369 42.7904 72.3235 32.4791 67.1887C28.5374 75.6242 39.3106 81.6369 39.3106 81.6369Z" fill="black"/>
<path d="M11.3597 76.633C11.3597 76.633 19.3005 70.6505 27.1534 79.0779C20.1856 85.2539 11.3597 76.633 11.3597 76.633Z" fill="black"/>
<path d="M28.9843 77.3385C28.9843 77.3385 35.3474 69.6992 27.3135 61.4442C20.8047 68.1022 28.9843 77.3385 28.9843 77.3385Z" fill="black"/>
<path d="M4.77616 68.3194C4.77616 68.3194 13.2785 63.166 20.2439 72.3407C12.69 77.7844 4.77616 68.3194 4.77616 68.3194Z" fill="black"/>
<path d="M20.3256 69.5174C20.3256 69.5174 27.4249 62.557 20.2622 53.5356C13.1166 59.5051 20.3256 69.5174 20.3256 69.5174Z" fill="black"/>
<path d="M1.71773 57.3256C1.71773 57.3256 11.3531 54.8747 15.3412 65.6815C6.5285 68.6865 1.71773 57.3256 1.71773 57.3256Z" fill="black"/>
<path d="M14.9659 61.0891C14.9659 61.0891 23.786 56.5007 19.5645 45.7831C10.989 49.4101 14.9659 61.0891 14.9659 61.0891Z" fill="black"/>
<path d="M0.882812 45.3625C0.882812 45.3625 10.8031 46.0215 11.2422 57.5323C1.93201 57.6553 0.882812 45.3625 0.882812 45.3625Z" fill="black"/>
<path d="M10.3763 51.4341C10.3763 51.4341 20.1846 49.8081 19.496 38.3096C10.2184 39.0976 10.3763 51.4341 10.3763 51.4341Z" fill="black"/>
<path d="M1.52014 35.9674C1.52014 35.9674 9.671 37.6915 8.669 47.292C0.931457 46.2891 1.52014 35.9674 1.52014 35.9674Z" fill="black"/>
<path d="M11.5762 38.2419C11.5762 38.2419 19.7252 39.9748 22.7065 30.7941C15.228 28.5699 11.5762 38.2419 11.5762 38.2419Z" fill="black"/>
<path d="M4.55875 25.8674C4.55875 25.8674 12.1364 29.189 9.2244 38.3219C1.9031 35.785 4.55875 25.8674 4.55875 25.8674Z" fill="black"/>
<path d="M14.7093 29.4196C14.7093 29.4196 22.6777 31.6462 26.206 22.7332C18.9328 20.0615 14.7093 29.4196 14.7093 29.4196Z" fill="black"/>
<path d="M16.366 8.34695C16.366 8.34695 21.9673 14.4362 15.6274 21.6262C9.94511 16.3584 16.366 8.34695 16.366 8.34695Z" fill="black"/>
<path d="M23.074 2.218C23.074 2.218 27.6608 9.10381 20.2805 15.221C15.486 9.13418 23.074 2.218 23.074 2.218Z" fill="black"/>
<path d="M33.0095 0.621094C33.0095 0.621094 33.7916 8.09855 25.2699 9.90314C23.9832 2.98078 33.0095 0.621094 33.0095 0.621094Z" fill="black"/>
<path d="M9.64242 16.8681C9.64242 16.8681 16.5762 21.3821 12.2124 29.9172C5.40343 26.2192 9.64242 16.8681 9.64242 16.8681Z" fill="black"/>
<path d="M18.8742 20.2633C18.8742 20.2633 26.3096 23.8921 31.3893 15.7628C24.7181 11.8217 18.8742 20.2633 18.8742 20.2633Z" fill="black"/>
<path d="M26.5153 13.3945C26.5153 13.3945 32.3222 17.7823 38.0797 11.6211C32.9853 7.09271 26.5153 13.3945 26.5153 13.3945Z" fill="black"/>
<path d="M32.0751 7.90378C32.0751 7.90378 38.6373 11.0521 43.0577 3.87091C37.166 0.443458 32.0751 7.90378 32.0751 7.90378Z" fill="black"/>
<path d="M41.6774 82.8199C41.6774 82.8199 46.7835 83.4582 47.4217 83.4582C48.06 83.4582 49.6557 85.6921 49.0174 86.3304C48.3791 86.9687 41.6774 83.7773 41.6774 83.7773C1.7859 72.6077 8.48767 33.9928 13.9129 26.9719C24.1251 12.2918 30.9987 8.46226 30.9987 8.46226C30.9987 8.46226 24.1251 12.2918 14.2231 27.291C9.12593 36.2267 4.01983 71.0121 41.6774 82.8199Z" fill="black"/>
</g>
</svg>
