<svg width="1024" height="1024" viewBox="0 0 1024 1024" fill="none" xmlns="http://www.w3.org/2000/svg">
<g clip-path="url(#clip0_55_115)">
<path d="M1024 0H0V1024H1024V0Z" fill="#FFCDD2"/>
<path d="M502 1014C502 1000.4 498.4 984.8 492.4 973C487.6 963.2 455.2 928 451.2 928C450.2 928 445.2 930 440.2 932.4C408.4 947.8 364 922.8 336.4 874C323.6 851.2 314 812.6 314 783.6V774H328.8C391 774 454.6 810.2 473.4 856.2C478.6 869 478 890.4 472.2 901.8L467.6 910.6L483.2 926.2C491.8 935 499.6 942 500.4 942C501.4 942 502 887.2 502 820.4V698.8L476.6 679.6C400.4 622.2 339.6 556.4 311.8 501.4C296.2 471 288.6 434 292.4 407.4C300.2 350.4 349.4 307.4 407 307.2C429.4 307.2 442.4 310.2 463.8 320.4C477.6 327 483.8 331.6 496.8 344.8L513 361L529 345C554.8 319 583.2 307.2 619 307.2C649.6 307.4 674.6 317.4 696.8 338C732.6 371.6 743.2 415.4 727.8 466.8C708.8 530.8 642.2 610.2 549.6 679.6L524 698.8V762.4C524 797.4 524.6 826 525.2 826C525.8 826 533.4 818.8 542.2 810.2L557.8 794.2L553.4 784.6C546.6 769.4 547.2 750.4 555.4 734C563.4 717.8 576.6 702.6 592.6 691.2C623 669.6 654.2 659.2 693 657.6L711 657L710.6 676C709.6 721.4 693.2 761 663.2 791.2C636.2 818.2 612 825.8 586.6 815.6L574.2 810.6L556.2 829C542.6 842.6 536.4 850.8 531.6 861.2L525 875L524.4 949.6L523.8 1024H512.8H502V1014ZM427.6 912.8C430 912 432 910.6 432 909.2C432 908 422 897.2 410 885L388 862.8L396 855L404 847.2L427 870C452.2 895 454 895.6 454 878.2C454 844.8 401.4 804.6 349.6 798.8C336.2 797.2 336.4 796.6 341 817.6C347.2 847.4 358.4 869.8 376.8 889.6C394 908 413 916.6 427.6 912.8ZM625.8 791.6C654.2 778.2 681 733.6 687 690.6L688.4 680L681.6 681.2C643.6 687.6 617.8 698.8 596.8 718.6C579.6 734.4 572 747.6 572 761C572 779.6 573.6 779.2 598.2 754.4C610.6 742.2 621.2 732 622 732C622.6 732 626.6 735.4 630.6 739.6L638 747.2L615 770C599.4 785.6 592.8 793.4 594.6 794.4C599.4 797.6 616.8 796 625.8 791.6ZM500.4 668L513 678L525.6 668C527.6 668 557.6 644.2 580.2 624.8C590.6 615.8 609.8 597.4 623 583.8C673.2 532.2 700.2 489.2 708.8 447.4C714.2 421.8 712.2 403.6 701.8 382.6C675.2 328.2 607 313.6 555.6 351.4C543 360.6 529.4 378.6 526 390.8L523.4 400H513H502.6L500 390.8C496.6 378.6 483 360.6 470.4 351.4C428.8 320.8 376.2 323.6 341.6 358.2C299.8 399.8 306.4 462.2 360.6 535.4C381 563 436 618 471.8 646.6C486.6 658.4 499.4 668 500.4 668Z" fill="black"/>
</g>
<defs>
<clipPath id="clip0_55_115">
<rect width="1024" height="1024" fill="white"/>
</clipPath>
</defs>
</svg>
