<svg width="470" height="29" viewBox="0 0 470 29" fill="none" xmlns="http://www.w3.org/2000/svg">
    <g opacity="0.2">
        <path d="M438.992 14.2188L30.9922 14.2188" stroke="black" stroke-width="2.14769" stroke-linecap="round" />
        <path d="M8.5346 14.5625L19.5938 14.5625" stroke="black" stroke-width="1.17093" stroke-linecap="round" />
        <path
            d="M12.6621 22.1612C13.5352 28.8255 5.29475 30.1035 2.41068 25.8548C0.914163 23.6501 0.614753 21.1212 1.48767 18.7336C2.01142 17.301 3.23708 16.1894 4.37583 15.6342C5.51459 15.0791 7.87267 14.577 9.22503 14.5631C7.87267 14.5492 5.51459 14.2308 4.37583 13.6756C3.23708 13.1204 2.01142 12.0088 1.48767 10.5763C0.614753 8.18865 0.914162 5.65969 2.41068 3.45507C5.29475 -0.793686 13.5352 0.484294 12.6621 7.14864M12.6621 22.1612C12.6372 21.9704 12.6047 21.7752 12.5644 21.5756M12.6621 22.1612C12.6463 21.9634 12.613 21.7676 12.5644 21.5756M12.6621 22.1612C12.6654 22.2019 12.668 22.2427 12.6697 22.2836M12.5644 21.5756C12.555 21.5291 12.5452 21.4824 12.535 21.4354M12.5644 21.5756C11.9608 19.19 8.98972 17.3929 7.52948 19.5815C6.49765 21.128 7.44284 23.4119 9.68032 23.1881M12.6621 7.14864C12.6372 7.33941 12.6047 7.5346 12.5644 7.7342M12.6621 7.14864C12.6462 7.34646 12.613 7.54223 12.5644 7.7342M12.6621 7.14864C12.6654 7.10793 12.668 7.06712 12.6697 7.02625M12.5644 7.7342C12.555 7.7807 12.5452 7.82745 12.535 7.87443M12.5644 7.7342C11.9608 10.1198 8.98972 11.917 7.52948 9.72832C6.49765 8.18179 7.44284 5.89793 9.68032 6.12174"
            stroke="black" stroke-width="1.17093" />
        <path
            d="M23.8271 19.25C23.8271 15.8281 20.9454 14.789 19.5938 14.5663C20.9454 14.3435 23.8271 12.9141 23.8271 9.49222L31.0097 14.5663L23.8271 19.25Z"
            stroke="black" stroke-width="1.17093" stroke-linejoin="round" />
        <path d="M461.473 14.582L450.414 14.582" stroke="black" stroke-width="1.17093" stroke-linecap="round" />
        <path
            d="M457.346 22.1807C456.473 28.8451 464.713 30.123 467.597 25.8743C469.094 23.6697 469.393 21.1407 468.52 18.7531C467.996 17.3205 466.771 16.2089 465.632 15.6538C464.493 15.0986 462.135 14.5965 460.783 14.5826C462.135 14.5687 464.493 14.2503 465.632 13.6951C466.771 13.1399 467.996 12.0284 468.52 10.5958C469.393 8.20818 469.094 5.67923 467.597 3.4746C464.713 -0.774155 456.473 0.503826 457.346 7.16817M457.346 22.1807C457.371 21.9899 457.403 21.7948 457.443 21.5952M457.346 22.1807C457.362 21.9829 457.395 21.7871 457.443 21.5952M457.346 22.1807C457.342 22.2214 457.34 22.2622 457.338 22.3031M457.443 21.5952C457.453 21.5486 457.463 21.5019 457.473 21.4549M457.443 21.5952C458.047 19.2095 461.018 17.4124 462.478 19.601C463.51 21.1476 462.565 23.4314 460.327 23.2076M457.346 7.16817C457.371 7.35895 457.403 7.55413 457.443 7.75373M457.346 7.16817C457.362 7.36599 457.395 7.56177 457.443 7.75373M457.346 7.16817C457.342 7.12746 457.34 7.08665 457.338 7.04578M457.443 7.75373C457.453 7.80023 457.463 7.84698 457.473 7.89396M457.443 7.75373C458.047 10.1394 461.018 11.9365 462.478 9.74785C463.51 8.20132 462.565 5.91746 460.327 6.14127"
            stroke="black" stroke-width="1.17093" />
        <path
            d="M446.181 19.2695C446.181 15.8476 449.062 14.8086 450.414 14.5858C449.062 14.363 446.181 12.9337 446.181 9.51176L438.998 14.5858L446.181 19.2695Z"
            stroke="black" stroke-width="1.17093" stroke-linejoin="round" />
    </g>
</svg>