<svg width="114" height="40" viewBox="0 0 114 40" fill="none" xmlns="http://www.w3.org/2000/svg">
    <path d="M112.504 19.2812H68.5156" stroke="#F4DA9E" stroke-width="2.14769" stroke-linecap="round" />
    <path d="M44.0566 19.8047L56.1562 19.8047" stroke="#F4DA9E" stroke-width="1.17093" stroke-linecap="round" />
    <path
        d="M24.7991 38.5391C24.0389 24.4678 35.8268 20.237 41.1328 19.9993C35.8268 19.7616 24.0389 15.5307 24.7991 1.45951C20.7603 2.88565 18.622 10.7294 20.7603 15.2455C17.1174 14.9286 4.55728 15.4357 1.51625 19.9993C4.55728 24.5629 17.1174 25.07 20.7603 24.7531C18.622 29.2692 20.7603 37.1129 24.7991 38.5391Z"
        stroke="#F4DA9E" stroke-width="1.17093" />
    <path
        d="M48.5936 27.4034C49.5488 34.0677 40.533 35.3457 37.3776 31.0969C35.7403 28.8923 35.4127 26.3634 36.3678 23.9757C36.9408 22.5432 38.2818 21.4316 39.5277 20.8764C40.7736 20.3212 43.3535 19.8192 44.8331 19.8053C43.3535 19.7914 40.7736 19.473 39.5277 18.9178C38.2818 18.3626 36.9408 17.251 36.3678 15.8185C35.4127 13.4308 35.7403 10.9019 37.3776 8.69725C40.533 4.4485 49.5488 5.72648 48.5936 12.3908M48.5936 27.4034C48.5662 27.2126 48.5307 27.0174 48.4867 26.8178M48.5936 27.4034C48.5762 27.2056 48.5398 27.0098 48.4867 26.8178M48.5936 27.4034C48.5972 27.4441 48.5999 27.4849 48.6019 27.5258M48.4867 26.8178C48.4764 26.7713 48.4657 26.7246 48.4545 26.6776M48.4867 26.8178C47.8262 24.4322 44.5756 22.635 42.978 24.8237C41.8491 26.3702 42.8832 28.6541 45.3312 28.4303M48.5936 12.3908C48.5662 12.5816 48.5307 12.7768 48.4867 12.9764M48.5936 12.3908C48.5762 12.5886 48.5398 12.7844 48.4867 12.9764M48.5936 12.3908C48.5972 12.3501 48.5999 12.3093 48.6019 12.2684M48.4867 12.9764C48.4764 13.0229 48.4657 13.0696 48.4545 13.1166M48.4867 12.9764C47.8262 15.362 44.5756 17.1592 42.978 14.9705C41.8491 13.424 42.8832 11.1401 45.3312 11.3639"
        stroke="#F4DA9E" stroke-width="1.17093" />
    <path
        d="M60.7879 24.4883C60.7879 21.0664 57.6351 20.0273 56.1562 19.8045C57.6351 19.5818 60.7879 18.1524 60.7879 14.7305L68.6462 19.8045L60.7879 24.4883Z"
        stroke="#F4DA9E" stroke-width="1.17093" stroke-linejoin="round" />
</svg>