<svg width="1135" height="29" viewBox="0 0 1135 29" fill="none" xmlns="http://www.w3.org/2000/svg">
    <g opacity="0.2">
        <path d="M1063 14.2149L35 14.2148" stroke="black" stroke-width="2.14769" stroke-linecap="round" />
        <path d="M9.5488 14.5586L21.6484 14.5586" stroke="black" stroke-width="1.17093" stroke-linecap="round" />
        <path
            d="M14.0858 22.1573C15.041 28.8216 6.02523 30.0996 2.86981 25.8508C1.2325 23.6462 0.904917 21.1173 1.85996 18.7296C2.43299 17.2971 3.77396 16.1855 5.01985 15.6303C6.26574 15.0751 8.84568 14.5731 10.3253 14.5592C8.84568 14.5453 6.26574 14.2269 5.01985 13.6717C3.77396 13.1165 2.43299 12.0049 1.85996 10.5724C0.904917 8.18474 1.2325 5.65579 2.86981 3.45116C6.02523 -0.797592 15.041 0.480388 14.0858 7.14474M14.0858 22.1573C14.0584 21.9665 14.0229 21.7713 13.9789 21.5717M14.0858 22.1573C14.0684 21.9595 14.032 21.7637 13.9789 21.5717M14.0858 22.1573C14.0894 22.198 14.0921 22.2388 14.0941 22.2797M13.9789 21.5717C13.9686 21.5252 13.9579 21.4785 13.9467 21.4315M13.9789 21.5717C13.3184 19.1861 10.0678 17.3889 8.4702 19.5776C7.3413 21.1241 8.37541 23.408 10.8234 23.1842M14.0858 7.14474C14.0584 7.33551 14.0229 7.5307 13.9789 7.73029M14.0858 7.14474C14.0684 7.34255 14.032 7.53833 13.9789 7.73029M14.0858 7.14474C14.0894 7.10402 14.0921 7.06322 14.0941 7.02234M13.9789 7.73029C13.9686 7.7768 13.9579 7.82354 13.9467 7.87052M13.9789 7.73029C13.3184 10.1159 10.0678 11.9131 8.4702 9.72441C7.3413 8.17789 8.37541 5.89402 10.8234 6.11783"
            stroke="black" stroke-width="1.17093" />
        <path
            d="M26.2801 19.2461C26.2801 15.8242 23.1273 14.7851 21.6484 14.5624C23.1273 14.3396 26.2801 12.9102 26.2801 9.48832L34.1384 14.5624L26.2801 19.2461Z"
            stroke="black" stroke-width="1.17093" stroke-linejoin="round" />
        <path d="M1057 14.0352H1100.99" stroke="black" stroke-width="2.14769" stroke-linecap="round" />
        <path d="M1125.44 14.5586L1113.34 14.5586" stroke="black" stroke-width="1.17093" stroke-linecap="round" />
        <path
            d="M1120.91 22.1573C1119.95 28.8216 1128.97 30.0996 1132.12 25.8508C1133.76 23.6462 1134.09 21.1173 1133.13 18.7296C1132.56 17.2971 1131.22 16.1855 1129.97 15.6303C1128.73 15.0751 1126.15 14.5731 1124.67 14.5592C1126.15 14.5453 1128.73 14.2269 1129.97 13.6717C1131.22 13.1165 1132.56 12.0049 1133.13 10.5724C1134.09 8.18474 1133.76 5.65579 1132.12 3.45116C1128.97 -0.797592 1119.95 0.480388 1120.91 7.14474M1120.91 22.1573C1120.93 21.9665 1120.97 21.7713 1121.01 21.5717M1120.91 22.1573C1120.92 21.9595 1120.96 21.7637 1121.01 21.5717M1120.91 22.1573C1120.9 22.198 1120.9 22.2388 1120.9 22.2797M1121.01 21.5717C1121.02 21.5252 1121.03 21.4785 1121.05 21.4315M1121.01 21.5717C1121.67 19.1861 1124.92 17.3889 1126.52 19.5776C1127.65 21.1241 1126.62 23.408 1124.17 23.1842M1120.91 7.14474C1120.93 7.33551 1120.97 7.5307 1121.01 7.73029M1120.91 7.14474C1120.92 7.34255 1120.96 7.53833 1121.01 7.73029M1120.91 7.14474C1120.9 7.10402 1120.9 7.06322 1120.9 7.02234M1121.01 7.73029C1121.02 7.7768 1121.03 7.82354 1121.05 7.87052M1121.01 7.73029C1121.67 10.1159 1124.92 11.9131 1126.52 9.72441C1127.65 8.17789 1126.62 5.89402 1124.17 6.11783"
            stroke="black" stroke-width="1.17093" />
        <path
            d="M1108.71 19.2461C1108.71 15.8242 1111.86 14.7851 1113.34 14.5624C1111.86 14.3396 1108.71 12.9102 1108.71 9.48832L1100.85 14.5624L1108.71 19.2461Z"
            stroke="black" stroke-width="1.17093" stroke-linejoin="round" />
    </g>
</svg>