<svg width="343" height="72" viewBox="0 0 343 72" fill="none" xmlns="http://www.w3.org/2000/svg">
<g clip-path="url(#clip0_2002_917)">
<mask id="mask0_2002_917" style="mask-type:luminance" maskUnits="userSpaceOnUse" x="0" y="0" width="342" height="72">
<path d="M341.573 0H0.773438V72H341.573V0Z" fill="white"/>
</mask>
<g mask="url(#mask0_2002_917)">
<path d="M0.773438 1.9185C4.06165 1.17623 9.14956 0.742188 13.7392 0.742188C26.1436 0.742188 33.5925 4.82674 33.5925 15.2206C33.5925 21.5928 30.8594 25.8011 26.583 28.0908L36.9354 44.7959C36.128 45.3539 34.3914 45.6619 31.9715 45.6619C29.2384 45.6619 27.4429 45.3539 26.1394 44.7959L17.5194 30.3176H16.5417C14.4393 30.3176 11.641 30.131 10.1524 29.8835V44.8567C9.28412 45.3515 7.73252 45.6619 5.49972 45.6619C3.3279 45.6619 1.71533 45.3539 0.786052 44.8567L0.773438 1.9185ZM10.0788 9.09586V22.0268C11.8425 22.3175 13.6272 22.4627 15.4148 22.4609C20.8118 22.4609 24.1105 20.5486 24.1105 15.7259C24.1105 10.7754 20.6373 8.73518 14.4393 8.73518C12.978 8.72598 11.5187 8.8467 10.0788 9.09586Z" fill="#F25A5A"/>
<path d="M48.9196 32.9199C49.2916 37.2519 52.3928 39.355 58.536 39.355C62.5076 39.355 65.9808 38.489 68.2072 37.4993C68.3924 39.8498 67.4 42.8817 65.9744 44.4901C63.9268 45.6665 60.4536 46.6561 56.1728 46.6561C45.316 46.6561 39.5469 40.4077 39.5469 30.3827C39.5469 20.0497 45.7512 13.3672 55.4916 13.3672C64.5492 13.3672 68.7056 18.9363 68.7056 27.1033C68.6992 29.0785 68.386 31.0407 67.7764 32.9199H48.9196ZM60.2728 26.4198C60.7688 23.2033 59.5892 20.0476 55.124 20.0476C51.2764 20.0476 48.9196 22.5218 48.6716 26.4198H60.2728Z" fill="#F25A5A"/>
<path d="M87.9307 38.7376C88.3619 36.0417 88.9631 33.3756 89.7303 30.7551L94.4439 14.7921C95.1271 14.5447 96.1807 14.2344 98.1675 14.2344C100.711 14.2344 102.448 14.7292 103.564 15.4715L93.7627 44.8015C90.4747 45.7303 85.8827 46.0387 81.4783 46.0387L71.3047 15.4736C72.4211 14.7313 74.1575 14.2365 76.7711 14.2365C78.6315 14.2365 79.9247 14.5447 80.4943 14.7942L85.5191 30.7572C86.3347 33.3732 86.9775 36.0398 87.4427 38.7397L87.9307 38.7376Z" fill="#F25A5A"/>
<path d="M115.107 32.9199C115.479 37.2519 118.58 39.355 124.724 39.355C128.695 39.355 132.168 38.489 134.395 37.4993C134.58 39.8498 133.588 42.8817 132.162 44.4901C130.114 45.6665 126.641 46.6561 122.36 46.6561C111.504 46.6561 105.734 40.4077 105.734 30.3827C105.734 20.0497 111.939 13.3672 121.679 13.3672C130.737 13.3672 134.893 18.9363 134.893 27.1033C134.888 29.0782 134.576 31.0404 133.968 32.9199H115.107ZM126.46 26.4198C126.956 23.2033 125.777 20.0476 121.312 20.0476C117.464 20.0476 115.107 22.5218 114.859 26.4198H126.46Z" fill="#F25A5A"/>
<path d="M150.848 44.9222C150.041 45.3562 148.552 45.6642 146.38 45.6642C144.208 45.6642 142.72 45.3562 141.852 44.9222V15.4095C143.534 14.4806 146.195 13.9857 149.172 13.9857L149.668 19.06H150.165C151.653 15.8435 154.817 13.3672 160.467 13.3672C165.182 13.3672 170.769 15.0446 170.769 25.2477V44.9241C169.961 45.3581 168.473 45.6662 166.301 45.6662C164.129 45.6662 162.64 45.3581 161.772 44.9241V26.8559C161.772 23.6394 160.656 21.5971 156.996 21.5971C153.77 21.5971 151.971 23.2054 150.854 25.1239L150.848 44.9222Z" fill="#F25A5A"/>
<path d="M198.871 41.7046C197.506 44.4894 194.59 46.6554 189.13 46.6554C184.294 46.6554 178.828 44.9778 178.828 34.7034V15.8322C180.931 14.6559 183.916 13.9766 187.824 13.9766V33.1581C187.824 36.4983 188.875 38.3561 192.477 38.3561C195.393 38.3561 197.313 37.119 198.433 35.6952V15.0984C199.302 14.6643 200.79 14.3561 202.962 14.3561C205.134 14.3561 206.622 14.6664 207.43 15.0984V44.613C205.817 45.5418 203.273 46.0366 200.42 46.0366L199.369 41.7046H198.871Z" fill="#F25A5A"/>
<path d="M223.552 32.9199C223.924 37.2519 227.026 39.355 233.169 39.355C237.14 39.355 240.614 38.489 242.84 37.4993C243.025 39.8498 242.033 42.8817 240.607 44.4901C238.56 45.6665 235.086 46.6561 230.806 46.6561C219.949 46.6561 214.18 40.4077 214.18 30.3827C214.18 20.0497 220.384 13.3672 230.124 13.3672C239.182 13.3672 243.338 18.9363 243.338 27.1033C243.331 29.0786 243.017 31.0407 242.407 32.9199H223.552ZM234.906 26.4198C235.402 23.2033 234.222 20.0476 229.756 20.0476C225.909 20.0476 223.552 22.5218 223.304 26.4198H234.906Z" fill="#F25A5A"/>
<path d="M273.383 8.22996C264.634 8.22996 258.617 12.6856 258.617 23.4506C258.617 34.2156 264.573 38.4868 272.947 38.4868C276.523 38.4524 280.06 37.7409 283.369 36.39C283.493 38.6797 282.377 42.6384 280.888 44.62C278.22 45.92 274.371 46.8468 270.031 46.8468C256.755 46.8468 248.938 38.3086 248.938 24.0776C248.94 8.7248 258.058 0 271.459 0C274.995 0 278.592 0.62904 280.888 1.97938C282.316 4.02168 282.936 7.6722 282.625 10.3938C279.648 8.9722 276.919 8.22996 273.383 8.22996Z" fill="#F25A5A"/>
<path d="M305.383 42.1965C304.018 44.9225 301.102 46.6525 296.822 46.6525C291.356 46.6525 286.648 43.9265 286.648 36.7534C286.648 29.2049 292.114 26.2967 299.305 26.2967C301.217 26.2731 303.121 26.5447 304.95 27.1018V26.2359C304.95 22.4616 303.089 21.1008 298.994 21.1008C295.516 21.0984 292.096 21.9911 289.066 23.6924C288.322 21.279 288.631 17.4439 290.058 15.4017C292.293 14.1645 296.139 13.3594 300.73 13.3594C309.664 13.3594 313.944 16.5046 313.944 25.6718V36.376C313.944 38.2945 314.812 38.7265 316.046 38.7265C316.989 38.7432 317.916 38.4853 318.714 37.9842C318.962 40.4585 318.218 43.4905 317.102 45.2225C315.798 46.0885 314.062 46.6461 311.953 46.6461C308.356 46.6461 306.487 45.0985 305.873 42.1905L305.383 42.1965ZM305.135 33.04C303.83 32.5332 302.44 32.2813 301.039 32.2977C297.442 32.2977 295.642 33.7822 295.642 36.1349C295.642 38.5483 297.442 39.4143 299.923 39.4143C301.908 39.4143 303.894 38.7852 305.135 37.2483V33.04Z" fill="#F25A5A"/>
<path d="M332.827 22.2231H341.109C341.483 21.4766 341.67 19.9166 341.67 18.3629C341.67 16.8092 341.483 15.2512 341.109 14.5027H332.827V5.28516C329.339 5.34804 326.04 6.1574 323.797 7.77404V14.4964H320.248C319.439 16.4884 319.004 19.5287 319.004 22.2147H323.799L323.677 44.0846C323.677 46.4938 323.257 49.5738 321.876 50.5406C315.301 55.1806 301.93 52.935 289.66 51.6622C272.033 49.8338 256.809 47.431 254.28 57.1578C252.943 62.2974 254.68 65.581 256.368 67.4322C259.763 71.1498 265.755 71.997 270.511 71.997C272.747 71.9946 274.979 71.8202 277.188 71.475C278.313 71.2926 279.319 70.6726 279.985 69.751C280.651 68.8294 280.923 67.6818 280.741 66.5602C280.363 64.2242 278.145 62.5762 275.815 63.0082C270.927 63.9182 264.027 65.9434 261.38 63.0438C260.484 62.0646 260.64 59.6594 261.38 58.915C263.348 55.9794 276.015 57.1014 288.768 58.8186C302.855 60.2866 317.439 62.3434 325.721 58.2126C328.963 56.5962 332.827 52.8322 332.827 44.0846V22.2231Z" fill="#F25A5A"/>
</g>
</g>
<defs>
<clipPath id="clip0_2002_917">
<rect width="340.8" height="72" fill="white" transform="translate(0.773438)"/>
</clipPath>
</defs>
</svg>
