<svg width="114" height="40" viewBox="0 0 114 40" fill="none" xmlns="http://www.w3.org/2000/svg">
    <path d="M1.50391 19.2812H45.4922" stroke="#F4DA9E" stroke-width="2.14769" stroke-linecap="round" />
    <path d="M69.9512 19.8047L57.8516 19.8047" stroke="#F4DA9E" stroke-width="1.17093" stroke-linecap="round" />
    <path
        d="M89.2087 38.5391C89.9689 24.4678 78.181 20.237 72.875 19.9993C78.181 19.7616 89.9689 15.5307 89.2087 1.45951C93.2475 2.88565 95.3858 10.7294 93.2475 15.2455C96.8904 14.9286 109.451 15.4357 112.492 19.9993C109.451 24.5629 96.8904 25.07 93.2475 24.7531C95.3858 29.2692 93.2475 37.1129 89.2087 38.5391Z"
        stroke="#F4DA9E" stroke-width="1.17093" />
    <path
        d="M65.4142 27.4034C64.459 34.0677 73.4748 35.3457 76.6302 31.0969C78.2675 28.8923 78.5951 26.3634 77.64 23.9757C77.067 22.5432 75.726 21.4316 74.4801 20.8764C73.2343 20.3212 70.6543 19.8192 69.1747 19.8053C70.6543 19.7914 73.2343 19.473 74.4801 18.9178C75.726 18.3626 77.067 17.251 77.64 15.8185C78.5951 13.4308 78.2675 10.9019 76.6302 8.69725C73.4748 4.4485 64.459 5.72648 65.4142 12.3908M65.4142 27.4034C65.4416 27.2126 65.4771 27.0174 65.5211 26.8178M65.4142 27.4034C65.4316 27.2056 65.468 27.0098 65.5211 26.8178M65.4142 27.4034C65.4106 27.4441 65.4079 27.4849 65.4059 27.5258M65.5211 26.8178C65.5314 26.7713 65.5421 26.7246 65.5533 26.6776M65.5211 26.8178C66.1816 24.4322 69.4322 22.635 71.0298 24.8237C72.1587 26.3702 71.1246 28.6541 68.6766 28.4303M65.4142 12.3908C65.4416 12.5816 65.4771 12.7768 65.5211 12.9764M65.4142 12.3908C65.4316 12.5886 65.468 12.7844 65.5211 12.9764M65.4142 12.3908C65.4106 12.3501 65.4079 12.3093 65.4059 12.2684M65.5211 12.9764C65.5314 13.0229 65.5421 13.0696 65.5533 13.1166M65.5211 12.9764C66.1816 15.362 69.4322 17.1592 71.0298 14.9705C72.1587 13.424 71.1246 11.1401 68.6766 11.3639"
        stroke="#F4DA9E" stroke-width="1.17093" />
    <path
        d="M53.2199 24.4883C53.2199 21.0664 56.3727 20.0273 57.8516 19.8045C56.3727 19.5818 53.2199 18.1524 53.2199 14.7305L45.3616 19.8045L53.2199 24.4883Z"
        stroke="#F4DA9E" stroke-width="1.17093" stroke-linejoin="round" />
</svg>