<svg width="182" height="55" viewBox="0 0 182 55" fill="none" xmlns="http://www.w3.org/2000/svg">
    <path
        d="M133.352 0.175781C133.352 2.82728 135.501 4.97728 138.152 4.97754C140.804 4.97754 142.954 2.82744 142.954 0.175781C142.954 0.116926 142.952 0.0583428 142.95 0H154C164.756 0 170.134 -0.000479549 174.054 2.47949C176.057 3.74683 177.753 5.44342 179.021 7.44629C181.5 11.3657 181.5 16.7441 181.5 27.5C181.5 38.2559 181.5 43.6343 179.021 47.5537C177.753 49.5566 176.057 51.2532 174.054 52.5205C170.134 55.0005 164.756 55 154 55H142.946C142.951 54.9084 142.954 54.8156 142.954 54.7227C142.954 52.0712 140.804 49.9219 138.152 49.9219C135.501 49.9221 133.352 52.0714 133.352 54.7227C133.352 54.8156 133.354 54.9084 133.359 55H28C17.2441 55 11.8657 55.0005 7.94629 52.5205C5.94342 51.2532 4.24683 49.5566 2.97949 47.5537C0.49952 43.6343 0.5 38.2559 0.5 27.5C0.5 16.7441 0.49952 11.3657 2.97949 7.44629C4.24683 5.44342 5.94342 3.74683 7.94629 2.47949C11.8657 -0.000479938 17.2441 0 28 0H133.355C133.353 0.0583431 133.352 0.116925 133.352 0.175781Z"
        fill="#0D3A3F" />
    <path opacity="0.6"
        d="M159.767 33.7966L158.629 32.6703L162.583 28.7157H152.649V27.0706H162.583L158.629 23.1223L159.767 21.9897L165.671 27.8931L159.767 33.7966Z"
        fill="#FAF8F5" />
    <line x1="138.158" y1="1.06641" x2="138.158" y2="53.3467" stroke="#D2D9C6" stroke-opacity="0.2"
        stroke-width="1.06695" stroke-dasharray="3.2 3.2" />
</svg>