<svg version="1.1" id="Layer_1" xmlns:x="ns_extend;" xmlns:i="ns_ai;" xmlns:graph="ns_graphs;" xmlns="http://www.w3.org/2000/svg" xmlns:xlink="http://www.w3.org/1999/xlink" x="0px" y="0px" viewBox="0 0 309.1 66" style="enable-background:new 0 0 309.1 66;" xml:space="preserve">
 <style type="text/css">
  .st0{fill:#1C1C1C;}
	.st1{fill:#027E6F;}
	.st2{fill:#FFFFFF;}
 </style>
 <metadata>
  <sfw xmlns="ns_sfw;">
   <slices>
   </slices>
   <sliceSourceBounds bottomLeftOrigin="true" height="66" width="309.1" x="-29.9" y="-216.6">
   </sliceSourceBounds>
  </sfw>
 </metadata>
 <g>
  <path class="st0" d="M152.8,23v2.4c-1.9-1.8-4.4-3-7.3-3c-6.4,0-11.3,5.2-11.3,11.7s4.9,11.6,11.3,11.6c2.9,0,5.4-1.1,7.3-3v2.4
		h4.6V23L152.8,23L152.8,23z M151.7,37.7c-2.2,3.4-6.3,4.5-9.6,2.4c-3.3-2-4.2-6.1-2-9.6c2.2-3.4,6.3-4.5,9.6-2.5
		C153,30.1,153.9,34.2,151.7,37.7z">
  </path>
  <path class="st0" d="M250.8,23v2.4c-1.9-1.8-4.4-3-7.3-3c-6.4,0-11.3,5.2-11.3,11.7s4.9,11.6,11.3,11.6c2.9,0,5.4-1.1,7.3-3v2.4
		h4.6V23L250.8,23L250.8,23z M249.8,37.7c-2.2,3.4-6.3,4.5-9.6,2.4c-3.3-2-4.2-6.1-2-9.6c2.2-3.4,6.3-4.5,9.6-2.5
		C251.1,30.1,251.9,34.2,249.8,37.7z">
  </path>
  <path class="st0" d="M175.5,31.9c0-2.1-0.5-3.1-1.2-3.8c-0.7-0.7-1.8-1.2-2.9-1.2c-1.2,0-2.2,0.4-2.9,1.2c-0.7,0.7-1.2,1.8-1.2,3.8
		v13.2h-4.8V22.9h4.5v1.6c1.3-1.3,3.1-2.1,5.2-2.1c2.6,0,4.9,1.2,6.3,3.1c1.5-1.8,3.9-3.1,6.7-3.1c2.8,0,4.9,1.2,6.4,3.1
		c1,1.4,1.7,3.1,1.7,6v13.6h-4.8V31.9c0-2.1-0.5-3.1-1.2-3.8c-0.7-0.7-1.8-1.2-2.9-1.2c-1.2,0-2.2,0.4-2.9,1.2
		c-0.7,0.7-1.2,1.8-1.2,3.8v13.2h-4.8L175.5,31.9L175.5,31.9z">
  </path>
  <path class="st0" d="M211.1,31.9c0-2.1-0.5-3.1-1.2-3.8c-0.7-0.7-1.8-1.2-2.9-1.2c-1.2,0-2.2,0.4-2.9,1.2c-0.7,0.7-1.2,1.8-1.2,3.8
		v13.2h-4.8V22.9h4.5v1.6c1.3-1.3,3.1-2.1,5.2-2.1c2.6,0,4.9,1.2,6.3,3.1c1.5-1.8,3.9-3.1,6.7-3.1c2.8,0,4.9,1.2,6.4,3.1
		c1,1.4,1.7,3.1,1.7,6v13.6h-4.8V31.9c0-2.1-0.5-3.1-1.2-3.8c-0.7-0.7-1.8-1.2-2.9-1.2c-1.2,0-2.2,0.4-2.9,1.2
		c-0.7,0.7-1.2,1.8-1.2,3.8v13.2h-4.8L211.1,31.9L211.1,31.9z">
  </path>
  <path class="st0" d="M278,9.2h4.8v36H278V9.2z">
  </path>
  <path class="st0" d="M108.2,23v2.4c-1.9-1.8-4.4-3-7.3-3c-6.4,0-11.3,5.1-11.3,11.6s4.9,11.7,11.3,11.7c2.8,0,5.3-1.1,7.2-2.9v2.3
		c0,3.8-2.4,6.7-5.9,7.1c-2.8,0.4-5.8-0.4-7.8-2c-0.2-0.2-0.5-0.4-0.7-0.6l-2.5,4c0.1,0.1,0.1,0.1,0.2,0.2c2.5,2,5.9,3.1,9.4,3.1
		c0.7,0,1.3,0,2-0.1c5.9-0.8,10-5.6,10-11.7V23H108.2L108.2,23z M101.4,41.2c-3.9,0-6.8-3.1-6.8-7.2c0-4.1,2.9-7.1,6.8-7.1
		c3.9,0,6.8,3.1,6.8,7.1C108.2,38.1,105.3,41.2,101.4,41.2z">
  </path>
  <path class="st0" d="M304.2,22.9l-7.1,15.9l-6.5-15.9h-4.8l8.8,21.4l-5.6,12.5h4.8l3-6.8l2.5-5.6l9.6-21.5H304.2z">
  </path>
  <path class="st0" d="M132.5,23.5c-1.7-0.7-3.5-1-5.3-0.7c-1.6,0.3-3,1.1-4.2,2.2c-0.2,0.2-0.5,0.5-0.7,0.7v-2.9H118v22.2h4.8V34.1
		c0-2.6,0.7-4.1,1.7-5.1c1.1-1.1,2.7-1.8,4.4-1.8c0.6,0,2,0.2,3.5,1.1l2.3-3.7C134,24.2,133.3,23.8,132.5,23.5z">
  </path>
  <path class="st0" d="M269.8,22.8c-1.6,0.3-3,1.1-4.2,2.2c-0.2,0.2-0.5,0.5-0.7,0.7v-2.9h-4.5v22.2h4.8V34.1c0-2.6,0.7-4.1,1.7-5.1
		c1.1-1.1,2.7-1.8,4.4-1.8c0.6,0,1.9,0,3.5,0.6v-4.4C273.3,22.7,271.6,22.4,269.8,22.8L269.8,22.8z">
  </path>
  <path class="st1" d="M0,33C0,14.8,14.9,0,33.3,0c18.4,0,33.3,14.8,33.3,33c0,15.9-11.4,29.3-26.6,32.3c-2.2,0.4-4.4,0.7-6.7,0.7H0
		V33L0,33z">
  </path>
  <path class="st2" d="M56.4,29.9h-15l-3.5,6.1h12.4c-1.9,10.6-13.8,17.7-25.6,11.7c-2.5-1.3-4.6-3.3-6-5.8
		C11.8,28.9,21.1,16,33.4,16c5.1,0,9.6,2.2,12.8,5.7l3.2-5.4C44.8,12,38.6,9.5,31.8,10c-11.6,0.8-21,10.3-21.5,21.8
		C9.6,45,20.2,55.9,33.4,55.9c13.2,0,23.2-10.3,23.2-23C56.6,31.9,56.5,30.9,56.4,29.9L56.4,29.9z">
  </path>
 </g>
</svg>