<svg width="176" height="36" viewBox="0 0 176 36" fill="none" xmlns="http://www.w3.org/2000/svg">
<path d="M10.8323 17.968V18.424C11.8883 18.496 12.2243 18.64 12.2243 19.312V21.016C12.2243 22.96 11.4563 24.712 9.46431 24.712C7.04031 24.712 5.55231 22.456 5.55231 16.72C5.55231 11.392 6.99231 8.968 9.70431 8.968C12.3203 8.968 13.9283 11.2 14.9123 14.464H15.3443C15.2243 12.472 15.2243 10.456 15.2243 8.464H14.8403L14.0483 9.568C13.0403 8.824 11.5523 8.32 9.63231 8.32C4.61631 8.32 1.40031 11.8 1.40031 16.816C1.40031 21.88 4.66431 25.36 9.27231 25.36C11.5283 25.36 13.1363 24.568 14.1923 23.464L15.2723 25.288H15.6323V19.312C15.6323 18.64 15.9443 18.496 17.0003 18.424V17.968H10.8323ZM26.5709 12.64C24.8189 12.64 23.5949 13.96 23.1149 15.88L23.2349 12.64L18.2909 13V13.456C19.2269 13.528 19.5629 13.672 19.5629 14.296V23.656C19.5629 24.328 19.2749 24.472 18.2909 24.544V25H25.5869V24.544C23.8349 24.472 23.3069 24.328 23.3069 23.656V18.52C23.3069 15.736 24.0509 14.704 24.9149 14.704C25.7309 14.704 26.1389 15.496 26.1389 17.416C27.3149 17.416 28.9949 16.816 28.9949 14.92C28.9949 13.456 27.9869 12.64 26.5709 12.64ZM37.285 24.304C35.101 24.304 34.117 22.6 34.021 18.544H40.789C40.981 18.112 41.077 17.584 41.077 16.984C41.077 14.152 38.869 12.64 36.181 12.64C32.653 12.64 30.061 15.232 30.061 19.096C30.061 22.936 32.677 25.36 36.157 25.36C38.341 25.36 40.117 24.4 41.053 22.696L40.669 22.384C39.781 23.704 38.581 24.304 37.285 24.304ZM36.109 13.312C37.477 13.312 37.909 14.848 37.909 16.288C37.909 17.536 37.645 17.92 36.781 17.92H34.021C34.021 15.304 34.525 13.312 36.109 13.312ZM54.9271 22.84C54.6871 23.536 54.3991 23.992 53.9431 23.992C53.4871 23.992 53.3191 23.56 53.3191 22.912V17.296C53.3191 14.056 51.5671 12.64 48.3991 12.64C45.6631 12.64 43.5751 13.696 43.5751 15.376C43.5751 16.624 44.7511 17.2 46.5751 17.2C46.5751 14.272 47.1751 13.312 48.1831 13.312C49.1671 13.312 49.5991 14.296 49.5991 15.832V18.616C45.9991 18.688 42.8551 19.552 42.8551 22.312C42.8551 24.04 44.0311 25.36 46.1191 25.36C47.9191 25.36 49.1671 24.376 49.7911 22.792C50.0071 24.28 50.8471 25.36 52.4551 25.36C53.7751 25.36 55.0471 24.64 55.3111 22.96L54.9271 22.84ZM47.7031 23.584C46.9111 23.584 46.3351 22.96 46.3351 21.784C46.3351 20.248 47.4151 19.384 49.5991 19.264V21.184C49.5991 22.528 48.7351 23.584 47.7031 23.584ZM64.5453 23.08C63.8733 23.824 63.1773 24.232 62.4813 24.232C61.4253 24.232 60.9213 23.368 60.9213 21.808V13.672H64.4733V13H60.9213V9.496C59.6733 9.856 58.4253 10.12 57.1773 10.288V13H55.8093V13.672H57.1773V21.184C57.1773 24.328 58.9773 25.36 61.0413 25.36C62.6973 25.36 64.0653 24.64 64.9293 23.464L64.5453 23.08ZM88.7584 25.072C88.1104 26.2 87.1504 26.656 86.3104 26.656C85.0144 26.656 84.1504 25.648 83.3584 24.472C85.8784 23.152 87.4864 20.392 87.4864 16.768C87.4864 11.824 84.3424 8.32 79.4944 8.32C74.5984 8.32 71.4784 11.872 71.4784 16.864C71.4784 21.88 74.5504 25.36 79.6144 25.36C80.2384 25.36 80.8384 25.288 81.3904 25.168C82.0864 27.256 82.9264 29.464 85.2544 29.464C87.6304 29.464 88.7824 27.064 88.9984 25.192L88.7584 25.072ZM79.4944 8.968C81.8704 8.968 83.3344 11.344 83.3344 16.768C83.3344 19.552 82.9504 21.544 82.2784 22.84C81.4864 21.736 80.6224 20.824 79.3024 20.824C78.0304 20.824 76.9744 21.712 76.9744 23.128C76.9744 23.224 76.9744 23.296 76.9984 23.368C76.1104 22.144 75.6304 20.008 75.6304 16.912C75.6304 11.536 77.0224 8.968 79.4944 8.968ZM79.5664 24.712C78.2944 24.712 77.6464 23.848 77.6464 22.984C77.6464 22.12 78.2944 21.544 79.0384 21.544C80.0944 21.544 80.5984 22.768 81.1024 24.256C80.6464 24.568 80.1184 24.712 79.5664 24.712ZM103.153 22.816C102.937 23.536 102.673 23.992 102.217 23.992C101.737 23.992 101.593 23.56 101.593 22.912V12.64L96.5774 13V13.456C97.5614 13.528 97.8494 13.672 97.8494 14.296V20.848C97.8494 22.816 96.7214 23.68 95.7854 23.68C94.9694 23.68 94.1774 22.984 94.1774 21.136V12.64L89.1614 13V13.456C90.1454 13.528 90.4334 13.672 90.4334 14.296V21.688C90.4334 24.472 92.3294 25.36 94.0814 25.36C95.9534 25.36 97.4414 24.328 98.0414 22.744C98.2334 24.208 99.0974 25.36 100.729 25.36C102.049 25.36 103.297 24.64 103.585 22.96L103.153 22.816ZM111.933 24.304C109.749 24.304 108.765 22.6 108.669 18.544H115.437C115.629 18.112 115.725 17.584 115.725 16.984C115.725 14.152 113.517 12.64 110.829 12.64C107.301 12.64 104.709 15.232 104.709 19.096C104.709 22.936 107.325 25.36 110.805 25.36C112.989 25.36 114.765 24.4 115.701 22.696L115.317 22.384C114.429 23.704 113.229 24.304 111.933 24.304ZM110.757 13.312C112.125 13.312 112.557 14.848 112.557 16.288C112.557 17.536 112.293 17.92 111.429 17.92H108.669C108.669 15.304 109.173 13.312 110.757 13.312ZM123.096 12.64C119.712 12.64 117.96 14.224 117.96 16.264C117.96 18.424 119.88 19.288 121.536 20.08C123.023 20.776 124.512 21.544 124.512 23.032C124.512 24.16 123.648 24.664 122.736 24.664C121.776 24.664 120.696 24.04 120.504 21.352C119.976 21.256 119.4 21.28 118.968 21.424C118.248 21.568 117.528 22.024 117.528 22.912C117.528 24.376 119.352 25.36 122.208 25.36C125.88 25.36 127.68 23.704 127.68 21.64C127.68 19.6 125.976 18.688 124.248 17.896C122.64 17.152 121.128 16.456 121.128 14.968C121.128 13.936 121.872 13.336 122.808 13.336C124.08 13.336 124.752 14.488 124.752 16.36C125.232 16.48 125.76 16.48 126.216 16.312C127.152 16.216 127.44 15.496 127.44 14.944C127.44 13.504 125.616 12.64 123.096 12.64ZM137.905 23.08C137.233 23.824 136.537 24.232 135.841 24.232C134.785 24.232 134.281 23.368 134.281 21.808V13.672H137.833V13H134.281V9.496C133.033 9.856 131.785 10.12 130.537 10.288V13H129.169V13.672H130.537V21.184C130.537 24.328 132.337 25.36 134.401 25.36C136.057 25.36 137.425 24.64 138.289 23.464L137.905 23.08ZM141.948 10.912C143.34 10.912 144.228 10.12 144.228 8.968C144.228 7.792 143.34 7.024 141.948 7.024C140.556 7.024 139.644 7.792 139.644 8.968C139.644 10.12 140.556 10.912 141.948 10.912ZM140.196 23.656C140.196 24.328 139.908 24.472 138.924 24.544V25H145.212V24.544C144.228 24.472 143.94 24.328 143.94 23.656V12.64L138.924 13V13.456C139.86 13.528 140.196 13.672 140.196 14.296V23.656ZM153.212 25.36C156.884 25.36 159.644 22.912 159.644 18.976C159.644 15.04 156.884 12.64 153.212 12.64C149.54 12.64 146.78 15.04 146.78 18.976C146.78 22.912 149.54 25.36 153.212 25.36ZM153.212 24.688C151.364 24.688 150.716 22.72 150.716 18.976C150.716 15.232 151.364 13.312 153.212 13.312C155.06 13.312 155.708 15.232 155.708 18.976C155.708 22.72 155.06 24.688 153.212 24.688ZM173.858 23.656V16.192C173.858 13.528 171.986 12.64 170.21 12.64C168.338 12.64 166.778 13.696 166.178 15.28L166.298 12.64L161.33 13V13.456C162.266 13.528 162.602 13.672 162.602 14.296V23.656C162.602 24.328 162.314 24.472 161.33 24.544V25H167.522V24.544C166.61 24.472 166.346 24.328 166.346 23.656V17.056C166.346 15.28 167.426 14.32 168.458 14.32C169.322 14.32 170.114 14.968 170.114 16.672V23.656C170.114 24.328 169.826 24.472 168.938 24.544V25H175.13V24.544C174.146 24.472 173.858 24.328 173.858 23.656Z" fill="#12102F"/>
</svg>
