<svg width="182" height="54" viewBox="0 0 182 54" fill="none" xmlns="http://www.w3.org/2000/svg">
    <path
        d="M133.367 0.175781C133.367 2.82728 135.517 4.97728 138.168 4.97754C140.82 4.97754 142.97 2.82744 142.97 0.175781C142.97 0.116926 142.968 0.0583428 142.966 0H154.881C164.688 4.06783e-10 169.592 -0.000368252 173.261 2.07617C175.786 3.50556 177.874 5.59504 179.304 8.12012C181.38 11.7886 181.381 16.6924 181.381 26.5C181.381 36.3077 181.38 41.2114 179.304 44.8799C177.874 47.405 175.786 49.4944 173.261 50.9238C169.592 53.0004 164.688 53 154.881 53H142.915C142.567 50.6905 140.574 48.9199 138.168 48.9199C135.762 48.9202 133.77 50.6907 133.422 53H26.5C16.6925 53 11.7886 53.0004 8.12012 50.9238C5.59493 49.4944 3.50559 47.4051 2.07617 44.8799C-0.000248379 41.2115 0 36.3074 0 26.5C0 16.6925 -0.000312624 11.7885 2.07617 8.12012C3.5056 5.5949 5.5949 3.5056 8.12012 2.07617C11.7885 -0.000380991 16.6925 1.51523e-10 26.5 0H133.371C133.369 0.0583431 133.367 0.116925 133.367 0.175781Z"
        fill="#0D3A3F" />
    <line x1="138.174" y1="5.06641" x2="138.174" y2="49.875" stroke="#D2D9C6" stroke-opacity="0.2"
        stroke-width="1.06695" stroke-dasharray="3.2 3.2" />
</svg>